<?xml version="1.0" encoding="UTF-8" standalone="no"?>
<!-- Created with Inkscape (http://www.inkscape.org/) -->

<svg
   width="233.96336mm"
   height="237.00922mm"
   viewBox="0 0 233.96336 237.00922"
   version="1.1"
   id="svg138"
   inkscape:export-filename="record.png"
   inkscape:export-xdpi="27.435221"
   inkscape:export-ydpi="27.435221"
   inkscape:version="1.2.2 (732a01da63, 2022-12-09)"
   sodipodi:docname="record.svg"
   xmlns:inkscape="http://www.inkscape.org/namespaces/inkscape"
   xmlns:sodipodi="http://sodipodi.sourceforge.net/DTD/sodipodi-0.dtd"
   xmlns="http://www.w3.org/2000/svg"
   xmlns:svg="http://www.w3.org/2000/svg">
  <sodipodi:namedview
     id="namedview140"
     pagecolor="#505050"
     bordercolor="#ffffff"
     borderopacity="1"
     inkscape:showpageshadow="0"
     inkscape:pageopacity="0"
     inkscape:pagecheckerboard="1"
     inkscape:deskcolor="#505050"
     inkscape:document-units="mm"
     showgrid="false"
     inkscape:zoom="0.73851712"
     inkscape:cx="360.18123"
     inkscape:cy="441.42511"
     inkscape:window-width="1920"
     inkscape:window-height="1009"
     inkscape:window-x="1912"
     inkscape:window-y="-8"
     inkscape:window-maximized="1"
     inkscape:current-layer="layer1" />
  <defs
     id="defs135" />
  <g
     inkscape:label="Layer 1"
     inkscape:groupmode="layer"
     id="layer1"
     transform="translate(10.577584,54.01728)">
    <g
       id="g328"
       transform="matrix(0.23517128,0,0,0.23517128,-135.4709,-175.39177)">
      <path
         style="display:inline;fill:#af404b"
         d="m 1014.7679,1523.2753 c 1.7974,-0.2226 4.4974,-0.218 6,0.01 1.5027,0.2281 0.032,0.4102 -3.2679,0.4046 -3.3,-0.01 -4.5294,-0.1923 -2.7321,-0.4148 z m 13.9821,0 c 1.7875,-0.2218 4.7125,-0.2218 6.5,0 1.7875,0.2218 0.325,0.4033 -3.25,0.4033 -3.575,0 -5.0375,-0.1815 -3.25,-0.4033 z m 30.0625,-0.9597 c 0.7219,-0.2889 1.5844,-0.2534 1.9167,0.079 0.3323,0.3323 -0.2584,0.5687 -1.3125,0.5253 -1.165,-0.048 -1.4019,-0.285 -0.6042,-0.6042 z M 684.87244,1391.25 c -1.24387,-1.5861 -1.2085,-1.6214 0.37756,-0.3776 1.66575,1.3064 2.19548,2.1276 1.37244,2.1276 -0.20765,0 -0.99515,-0.7875 -1.75,-1.75 z M 1365,1392.6871 c 0,-0.1721 1.4625,-1.6346 3.25,-3.25 l 3.25,-2.9371 -2.9371,3.25 c -2.7378,3.0295 -3.5629,3.7097 -3.5629,2.9371 z M 1396.5,1361 c 0.9955,-1.1 2.035,-2 2.31,-2 0.275,0 -0.3145,0.9 -1.31,2 -0.9955,1.1 -2.035,2 -2.31,2 -0.275,0 0.3145,-0.9 1.31,-2 z m 18.5,-21.3776 c 0,-0.2076 0.7875,-0.9951 1.75,-1.75 1.5861,-1.2438 1.6214,-1.2085 0.3776,0.3776 -1.3064,1.6657 -2.1276,2.1955 -2.1276,1.3724 z M 532.07895,1057.4167 c 0.048,-1.165 0.28494,-1.4019 0.60416,-0.6042 0.28887,0.7219 0.25335,1.5844 -0.0789,1.9167 -0.33229,0.3323 -0.56864,-0.2584 -0.52522,-1.3125 z m 490.73355,-6.0998 c 0.7219,-0.2889 1.5844,-0.2534 1.9167,0.079 0.3323,0.3323 -0.2584,0.5687 -1.3125,0.5253 -1.165,-0.048 -1.4019,-0.285 -0.6042,-0.6042 z M 1525.1579,1044 c 0,-1.375 0.227,-1.9375 0.5044,-1.25 0.2774,0.6875 0.2774,1.8125 0,2.5 -0.2774,0.6875 -0.5044,0.125 -0.5044,-1.25 z m -521.2855,-0.75 c -1.2438,-1.5861 -1.2085,-1.6214 0.3776,-0.3776 1.6657,1.3064 2.1955,2.1276 1.3724,2.1276 -0.2076,0 -0.9951,-0.7875 -1.75,-1.75 z m -472.79345,-1.8333 c 0.048,-1.165 0.28494,-1.4019 0.60416,-0.6042 0.28887,0.7219 0.25335,1.5844 -0.0789,1.9167 -0.33229,0.3323 -0.56864,-0.2584 -0.52522,-1.3125 z m 697.67885,-15.0504 c -0.2772,-0.4765 -0.8059,-6.7163 -1.1749,-13.8663 -2.6176,-50.72609 -17.0095,-85.02975 -50.0829,-119.37434 -29.1289,-30.24854 -64.1983,-50.52751 -102,-58.98182 -19.5439,-4.37098 -30.2955,-5.52443 -50.5,-5.41776 -21.639,0.11424 -34.6941,1.87843 -54.45523,7.35876 -22.87295,6.34334 -49.79457,19.76623 -71.43027,35.61452 -9.60212,7.03362 -26.7937,24.27457 -34.97321,35.07364 -23.79419,31.41452 -36.92796,72.73593 -35.57053,111.9119 l 0.24895,7.1849 -119.56581,0.06 -119.56581,0.06 0.68103,-18.1406 c 1.55171,-41.33255 12.66013,-95.26633 28.0863,-136.36497 C 646.31688,797.25576 681.64371,747.12537 745,691.91217 c 11.5608,-10.07491 22.99758,-19.12926 23.02224,-18.22641 0.0122,0.44783 0.95128,-0.31076 2.08677,-1.68576 1.1355,-1.375 1.71411,-1.825 1.28581,-1 -0.68213,1.31392 -0.53782,1.32294 1.16322,0.0728 1.06808,-0.78499 3.00385,-2.58499 4.30171,-4 1.29786,-1.41501 2.02995,-1.96357 1.62687,-1.21902 -0.49628,0.91671 0.11394,0.79887 1.89026,-0.36501 2.51667,-1.64899 3.84581,-3.36242 1.46861,-1.89323 -0.72104,0.44563 -0.88282,0.27393 -0.4309,-0.45729 0.39798,-0.64395 1.19236,-0.88112 1.76529,-0.52703 0.57293,0.35409 2.14938,-0.65107 3.50324,-2.23369 1.35385,-1.58261 2.14969,-2.27008 1.76854,-1.52771 -0.56226,1.0951 -0.28224,1.12993 1.48415,0.18458 1.19744,-0.64085 2.4239,-1.80816 2.72546,-2.59402 0.30157,-0.78586 0.95115,-1.17987 1.44351,-0.87557 0.49237,0.3043 0.89522,0.12117 0.89522,-0.40697 0,-0.52813 1.60204,-1.90546 3.56008,-3.06074 1.95805,-1.15527 3.27468,-1.53722 2.92585,-0.84877 -0.34884,0.68844 0.006,0.47121 0.78879,-0.48274 0.78267,-0.95395 1.71604,-1.44145 2.07416,-1.08333 0.35811,0.35812 0.65112,0.13768 0.65112,-0.48986 0,-1.47138 5.49951,-4.33535 6.53354,-3.40247 0.43291,0.39057 0.49158,0.1932 0.13037,-0.43858 -0.87127,-1.52395 35.19278,-19.39838 54.33609,-26.93061 71.92005,-28.29805 128.38223,-37.19778 199,-31.36696 44.1695,3.64702 104.8121,20.77901 145.0791,40.98598 26.6097,13.35334 50.6324,27.9841 69.9209,42.5844 58.3951,44.20186 90.8467,80.52144 127.912,143.15829 15.4303,26.07565 33.111,69.30136 41.6057,101.7176 5.4573,20.82558 13.8525,74.74216 15.1424,97.25005 l 0.6447,11.25 -62.9024,0.023 c -64.2749,0.023 -154.6302,1.4168 -166.5215,2.5689 -3.6405,0.3527 -6.8459,0.2514 -7.1231,-0.2252 z m -232.67885,-3.9496 c 0.048,-1.165 0.28494,-1.4019 0.60416,-0.6042 0.28887,0.7219 0.25335,1.5844 -0.0789,1.9167 -0.33229,0.3323 -0.56864,-0.2584 -0.52522,-1.3125 z m 0,-5 c 0.048,-1.165 0.28494,-1.4019 0.60416,-0.6042 0.28887,0.7219 0.25335,1.5844 -0.0789,1.9167 -0.33229,0.3323 -0.56864,-0.2584 -0.52522,-1.3125 z m 29.73355,-30.09981 c 0.7219,-0.28887 1.5844,-0.25335 1.9167,0.0789 0.3323,0.33229 -0.2584,0.56864 -1.3125,0.52522 -1.165,-0.048 -1.4019,-0.28494 -0.6042,-0.60416 z M 1525.1579,984 c 0,-1.375 0.227,-1.9375 0.5044,-1.25 0.2774,0.6875 0.2774,1.8125 0,2.5 -0.2774,0.6875 -0.5044,0.125 -0.5044,-1.25 z M 657,681.62244 c 0,-0.20765 0.7875,-0.99515 1.75,-1.75 1.58606,-1.24387 1.62143,-1.2085 0.37756,0.37756 C 657.82119,681.91575 657,682.44548 657,681.62244 Z m 728.9243,-8.37244 -2.4243,-2.75 2.75,2.42431 c 1.5125,1.33338 2.75,2.57088 2.75,2.75 0,0.78428 -0.8098,0.14598 -3.0757,-2.42431 z M 676,661.5 c 1.29175,-1.375 2.57363,-2.5 2.84863,-2.5 0.275,0 -0.55688,1.125 -1.84863,2.5 -1.29175,1.375 -2.57363,2.5 -2.84863,2.5 -0.275,0 0.55688,-1.125 1.84863,-2.5 z m 693,-5 c -2.429,-2.475 -4.1914,-4.5 -3.9164,-4.5 0.275,0 2.4874,2.025 4.9164,4.5 2.429,2.475 4.1914,4.5 3.9164,4.5 -0.275,0 -2.4874,-2.025 -4.9164,-4.5 z m -679,-7.87756 c 0,-0.20765 0.7875,-0.99515 1.75,-1.75 1.58606,-1.24387 1.62143,-1.2085 0.37756,0.37756 C 690.82119,648.91575 690,649.44548 690,648.62244 Z M 1026.7835,516.2616 c 2.906,-0.20265 7.406,-0.20052 10,0.005 2.5941,0.20525 0.2165,0.37104 -5.2835,0.36844 -5.5,-0.003 -7.6224,-0.17053 -4.7165,-0.37317 z"
         id="path334" />
      <path
         style="fill:#313142"
         d="m 1023.8125,1523.3169 c 0.7219,-0.2889 1.5844,-0.2534 1.9167,0.079 0.3323,0.3323 -0.2584,0.5687 -1.3125,0.5253 -1.165,-0.048 -1.4019,-0.285 -0.6042,-0.6042 z m -30.5625,-1.0062 c 0.9625,-0.2516 2.5375,-0.2516 3.5,0 0.9625,0.2515 0.175,0.4573 -1.75,0.4573 -1.925,0 -2.7125,-0.2058 -1.75,-0.4573 z m 60,0 c 0.9625,-0.2516 2.5375,-0.2516 3.5,0 0.9625,0.2515 0.175,0.4573 -1.75,0.4573 -1.925,0 -2.7125,-0.2058 -1.75,-0.4573 z m -74.5,-0.973 c 0.6875,-0.2774 1.8125,-0.2774 2.5,0 0.6875,0.2774 0.125,0.5044 -1.25,0.5044 -1.375,0 -1.9375,-0.227 -1.25,-0.5044 z m 89,0 c 0.6875,-0.2774 1.8125,-0.2774 2.5,0 0.6875,0.2774 0.125,0.5044 -1.25,0.5044 -1.375,0 -1.9375,-0.227 -1.25,-0.5044 z m -97.9375,-1.0208 c 0.72187,-0.2889 1.58438,-0.2534 1.91667,0.079 0.33229,0.3323 -0.25834,0.5687 -1.3125,0.5253 -1.16495,-0.048 -1.4019,-0.285 -0.60417,-0.6042 z m 109,0 c 0.7219,-0.2889 1.5844,-0.2534 1.9167,0.079 0.3323,0.3323 -0.2584,0.5687 -1.3125,0.5253 -1.165,-0.048 -1.4019,-0.285 -0.6042,-0.6042 z m 9,-1 c 0.7219,-0.2889 1.5844,-0.2534 1.9167,0.079 0.3323,0.3323 -0.2584,0.5687 -1.3125,0.5253 -1.165,-0.048 -1.4019,-0.285 -0.6042,-0.6042 z M 996.5,1516.4835 c -0.55,-0.1972 -5.05,-0.5607 -10,-0.8079 -31.7026,-1.5829 -44.04307,-2.8891 -50.03774,-5.296 -3.32076,-1.3333 -8.04576,-2.5986 -10.5,-2.8118 -2.45424,-0.2131 -6.82959,-1.3281 -9.72299,-2.4777 -2.8934,-1.1495 -6.2684,-2.09 -7.5,-2.0899 -1.2316,10e-5 -4.93927,-0.8705 -8.23927,-1.9346 -12.36756,-3.9882 -20.23148,-6.0666 -23.07095,-6.0974 -1.61098,-0.017 -3.80256,-0.6925 -4.87018,-1.5 -1.06762,-0.8075 -3.55499,-1.4682 -5.52749,-1.4682 -1.9725,0 -4.474,-0.6175 -5.55887,-1.3722 -1.08488,-0.7547 -3.54751,-1.6989 -5.47251,-2.0982 -1.925,-0.3993 -4.47204,-1.3406 -5.66008,-2.0919 -1.18805,-0.7513 -3.4193,-1.5943 -4.95833,-1.8734 -2.63041,-0.477 -6.93687,-2.3277 -15.57971,-6.6954 -2.03396,-1.0279 -4.58396,-1.8689 -5.66666,-1.8689 -1.08271,0 -2.11855,-0.4208 -2.30189,-0.9351 -0.18333,-0.5143 -9.55833,-5.6291 -20.83333,-11.3661 -11.275,-5.7371 -21.85,-11.1753 -23.5,-12.0849 -4.20472,-2.3179 -8.76975,-3.9726 -10.27576,-3.7245 -1.4109,0.2324 -7.29128,-3.5891 -8.4802,-5.5111 -0.41577,-0.6721 -1.99785,-1.4948 -3.51573,-1.8282 -1.51788,-0.3333 -4.2155,-1.9666 -5.9947,-3.6294 -1.77921,-1.6628 -4.70627,-3.6381 -6.50457,-4.3894 -1.79831,-0.7514 -4.16051,-2.3512 -5.24934,-3.5552 -1.08884,-1.2039 -3.5547,-3.0044 -5.4797,-4.001 -1.925,-0.9966 -5.975,-3.9863 -9,-6.6436 -3.025,-2.6573 -7.975,-6.5074 -11,-8.5557 -9.43158,-6.3864 -57.66199,-55.09 -66.67201,-67.3261 -1.19461,-1.6223 -4.34461,-5.787 -7,-9.2548 -2.6554,-3.4679 -5.72799,-7.7797 -6.82799,-9.5819 -1.1,-1.8022 -3.2375,-4.7369 -4.75,-6.5216 -1.5125,-1.7847 -2.75,-3.6603 -2.75,-4.1681 0,-0.5078 -0.83071,-1.754 -1.84601,-2.7693 -2.5759,-2.5759 -8.15399,-10.8038 -8.15399,-12.0275 0,-0.5572 -0.7875,-1.6034 -1.75,-2.3249 -1.94581,-1.4586 -4.4397,-5.3869 -7.01619,-11.0516 -0.93808,-2.0625 -2.04946,-3.75 -2.46971,-3.75 -0.42026,0 -0.7641,-0.675 -0.7641,-1.5 0,-0.825 -0.45,-1.5 -1,-1.5 -0.55,0 -1,-0.6375 -1,-1.4167 0,-0.7791 -0.37551,-1.5666 -0.83447,-1.75 -0.45896,-0.1833 -3.18533,-5.2833 -6.0586,-11.3333 -2.87327,-6.05 -5.64776,-11.7814 -6.16553,-12.7364 -0.51777,-0.9551 -0.9414,-2.1376 -0.9414,-2.6279 0,-0.4903 -0.7542,-2.6339 -1.67601,-4.7636 -0.92181,-2.1296 -1.80668,-4.579 -1.9664,-5.443 -0.15971,-0.864 -0.97773,-2.889 -1.81783,-4.5 -0.84009,-1.611 -1.53298,-3.6041 -1.53976,-4.4291 -0.007,-0.825 -0.73336,-2.85 -1.61464,-4.5 -0.88127,-1.65 -2.91712,-6.825 -4.52411,-11.5 -1.60699,-4.675 -3.32975,-9.4 -3.82834,-10.5 -0.4986,-1.1 -2.3258,-6.5 -4.06044,-12 -1.73465,-5.5 -3.52209,-10.9 -3.97209,-12 -0.85654,-2.0938 -5.97917,-19.3667 -9.04541,-30.5 -3.17999,-11.5464 -6.43381,-29.3846 -8.93796,-49 -0.59682,-4.675 -1.53923,-11.7034 -2.09424,-15.6188 -0.55501,-3.9153 -1.45772,-22.3653 -2.00602,-41 -2.04881,-69.63119 3.7077,-116.51252 21.78045,-177.3812 4.85453,-16.34993 6.55545,-22.53859 7.55825,-27.5 4.18416,-20.70146 28.67845,-69.73159 51.37668,-102.84053 C 661.88185,673.03161 714.34662,625.08783 782,586.28317 c 26.99936,-15.48631 46.49435,-24.79817 49.50106,-23.64439 0.77174,0.29615 1.98722,0.17296 2.70105,-0.27374 0.71384,-0.4467 1.74789,-0.83688 2.29789,-0.86706 2.64039,-0.14492 8.15991,-1.85 9.5,-2.93474 0.825,-0.66779 2.55168,-1.26769 3.83706,-1.33311 1.28538,-0.0654 4.11173,-1.04396 6.28079,-2.17454 2.16906,-1.13057 4.71738,-2.05336 5.66294,-2.05064 1.90789,0.005 4.61062,-0.83606 24.21921,-7.54108 15.89134,-5.43393 20.34131,-6.68148 37,-10.37296 19.71602,-4.36897 44.71948,-8.5444 66.73502,-11.14435 15.16618,-1.79107 71.74508,-1.74126 76.76498,0.0676 1.1,0.39636 6.05,1.03039 11,1.40894 4.95,0.37855 11.25,1.15379 14,1.72276 2.75,0.56896 9.6137,1.2599 15.2527,1.53542 5.639,0.27551 10.0719,0.79744 9.8508,1.15983 -0.3658,0.59969 5.7012,1.35405 12.6465,1.57243 1.5125,0.0476 2.75,0.3964 2.75,0.7752 0,0.82203 8.6536,2.29595 11.5,1.95872 1.69,-0.20022 1.7675,-0.0625 0.5,0.88868 -1.2024,0.90231 -0.9865,1.01466 1.0883,0.56628 1.52,-0.32847 3.3774,0.0378 4.5,0.88732 1.0514,0.79566 3.1492,1.46097 4.6617,1.47847 1.5125,0.0175 2.75,0.53428 2.75,1.14843 0,0.65214 0.8992,0.88149 2.1617,0.55134 1.1889,-0.31091 3.1014,-0.0393 4.25,0.60365 3.3282,1.86294 8.8991,3.69697 11.2793,3.71332 1.205,0.008 2.4343,0.40881 2.7317,0.89006 0.2975,0.48125 1.7252,0.875 3.1728,0.875 1.4476,0 3.0063,0.60572 3.4639,1.34604 0.4575,0.74032 1.1405,1.0374 1.5177,0.66018 0.3772,-0.37722 1.6392,-0.16987 2.8044,0.46077 1.1652,0.63064 3.2027,1.26676 4.5278,1.41358 1.3251,0.14683 2.6751,0.62752 3,1.0682 0.3249,0.44067 1.4907,0.94892 2.5907,1.12944 2.263,0.37136 25.9037,10.09511 38,15.62991 11.9352,5.46111 22.7074,11.0597 28.8925,15.01626 3.0313,1.93909 5.8053,3.52562 6.1644,3.52562 0.3592,0 2.6534,1.35 5.0982,3 2.4448,1.65 4.8726,3 5.395,3 0.5225,0 0.9499,0.35298 0.9499,0.78439 0,0.43142 1.4625,1.63529 3.25,2.67528 3.1773,1.84859 5.6135,3.42072 16.3334,10.54033 10.4355,6.93075 17.0309,11.87489 23.5572,17.65926 3.6524,3.23713 7.8862,6.55058 9.4085,7.36322 1.5223,0.81264 4.159,2.77741 5.8594,4.36617 1.7003,1.58876 6.907,6.31376 11.5703,10.5 9.2138,8.27117 35.7976,34.56875 43.0751,42.61135 8.5909,9.49403 16.5472,19.01332 19.2236,23 1.4769,2.2 3.8712,5.35 5.3206,7 1.4494,1.65 3.7071,4.67743 5.017,6.72763 1.31,2.0502 4.1805,6.1002 6.379,9 2.1985,2.8998 3.9992,5.83487 4.0016,6.52237 0,0.6875 0.3783,1.25 0.8353,1.25 0.4571,0 1.4689,1.2375 2.2484,2.75 0.7796,1.5125 1.6575,2.975 1.9509,3.25 1.6827,1.5772 6.9697,9.57398 6.9697,10.54201 0,0.63141 0.9,1.9625 2,2.95799 1.1,0.99549 2,2.46646 2,3.26883 0,0.80237 0.8334,3.09513 1.8521,5.09502 4.3854,8.60974 11.1479,22.89563 11.1479,23.55018 0,0.39159 1.3968,3.72114 3.1039,7.39898 1.7072,3.67784 3.6874,8.03699 4.4004,9.68699 0.713,1.65 1.9991,4.575 2.8581,6.5 2.3757,5.32434 8.2047,20.75633 10.5852,28.02344 1.1668,3.56211 2.5437,7.37656 3.0598,8.47656 1.1244,2.39621 2.3962,5.92515 8.2894,23 5.1979,15.06034 7.3642,22.39797 8.2665,28 0.3544,2.2 1.2726,5.92823 2.0405,8.28495 0.7679,2.35672 1.3962,6.07398 1.3962,8.26058 0,2.18661 0.8536,7.90838 1.8969,12.71506 1.0433,4.80667 2.1972,12.56441 2.5642,17.23941 0.3671,4.675 1.5576,14.8 2.6457,22.5 1.6805,11.89216 1.9715,19.34488 1.9333,49.49999 -0.025,19.525 0.1969,37.2348 0.4926,39.3552 0.2957,2.1203 0.1534,4.3703 -0.3162,5 -0.4696,0.6296 -0.917,2.4948 -0.9942,4.1448 -0.3145,6.7194 -2.4701,22.3496 -3.8016,27.5656 -0.7814,3.0611 -1.4207,6.8064 -1.4207,8.3228 0,2.4352 -0.857,6.5345 -5.1453,24.6116 -1.0758,4.5353 -5.7706,21.2421 -8.5706,30.5 -1.8514,6.1212 -1.8276,6.0245 -2.7689,11.2318 -0.4271,2.3628 -1.1988,3.9637 -1.7472,3.6248 -0.5918,-0.3658 -0.7235,0.2081 -0.3314,1.4438 0.6438,2.0284 -1.2111,11.7606 -4.1877,21.9723 -0.8453,2.8999 -1.2461,5.5634 -0.8907,5.9188 0.3554,0.3554 -0.1,1.4702 -1.011,2.4773 -0.9114,1.0072 -1.2927,1.8312 -0.8472,1.8312 0.4455,0 -0.047,0.9774 -1.095,2.1719 -1.0478,1.1945 -1.3615,1.8547 -0.6972,1.4671 0.8107,-0.4731 0.7305,0.21 -0.2439,2.0781 -0.7984,1.5306 -1.4544,3.2973 -1.4577,3.9259 0,0.6287 -0.6812,1.402 -1.5062,1.7186 -0.825,0.3166 -1.5,1.42 -1.5,2.452 0,1.032 -0.9,2.6909 -2,3.6864 -1.1,0.9955 -2,2.8397 -2,4.0983 0,1.2586 -0.8992,2.9181 -1.9982,3.6879 -1.099,0.7698 -2.0989,2.6159 -2.2219,4.1025 -0.123,1.4866 -1.0238,3.4271 -2.0018,4.3121 -0.978,0.8851 -1.7781,2.6183 -1.7781,3.8516 0,1.2333 -1.35,4.9633 -3,8.2889 -1.65,3.3256 -3,6.3644 -3,6.7529 0,1.5345 -5.4551,12.0381 -7.3631,14.1773 -1.1143,1.2493 -2.1201,2.9131 -2.2352,3.6972 -0.2424,1.6519 -6.852,12.4055 -10.1517,16.5167 -1.2375,1.5418 -2.25,3.3326 -2.25,3.9795 0,0.647 -1.8,3.311 -4,5.9201 -2.2,2.609 -4,5.4648 -4,6.346 0,0.8813 -0.3995,1.7523 -0.8878,1.9357 -0.4882,0.1833 -3.915,4.3833 -7.6149,9.3333 -3.6999,4.95 -7.9999,10.35 -9.5556,12 -9.1365,9.6909 -15.0936,16.4171 -15.0031,16.9405 0.2115,1.2235 -11.6585,13.5595 -13.0473,13.5595 -0.4902,0 -0.8913,0.6329 -0.8913,1.4064 0,0.914 -0.7001,1.2233 -2,0.8833 -3.547,-0.9275 -3.4022,-1.1601 10.0928,-16.208 4.7261,-5.27 9.3336,-10.1952 10.239,-10.945 0.9054,-0.7498 1.4074,-1.7496 1.1156,-2.2218 -0.2918,-0.4721 0.258,-2.1086 1.2218,-3.6367 l 1.7523,-2.7782 -2.4607,1.9645 c -5.0736,4.0503 -11.8558,10.8964 -11.4481,11.5561 0.2326,0.3763 -4.782,5.8131 -11.1435,12.0818 -6.3614,6.2687 -17.3748,17.1351 -24.4741,24.1476 -7.0994,7.0125 -13.3816,12.75 -13.9605,12.75 -0.579,0 -0.8796,0.3375 -0.6682,0.75 0.2115,0.4125 -1.6434,2.55 -4.122,4.75 -2.4786,2.2 -4.1107,3.325 -3.6269,2.5 1.1712,-1.9974 -5.4027,3.2999 -11.6248,9.3673 -2.7453,2.677 -5.2497,4.609 -5.5655,4.2933 -0.5828,-0.5829 -5.7161,2.9952 -10.171,7.0894 -1.3466,1.2375 -2.8518,2.25 -3.3449,2.25 -0.4932,0 -3.2504,1.7388 -6.1271,3.8639 -2.8767,2.1252 -7.02,4.8367 -9.2073,6.0257 -2.1873,1.189 -5.5519,3.1156 -7.4769,4.2814 -1.925,1.1657 -5.975,3.4684 -9,5.117 -3.025,1.6487 -9.775,5.3432 -15,8.2101 -24.7313,13.5698 -47.9945,23.4782 -80.5,34.2871 -15.3237,5.0955 -15.6533,5.186 -43,11.8052 -35.2444,8.5309 -54.4168,12.212 -63.986,12.2855 -3.5913,0.027 -8.5668,0.7417 -11.0567,1.5871 -3.6824,1.2502 -9.8855,1.5223 -33.2422,1.4581 -15.7933,-0.043 -29.1651,-0.2403 -29.7151,-0.4376 z m 65,-67.5633 c 49.8762,-4.0861 87.5371,-12.7592 132,-30.3988 46.7378,-18.5421 111.8328,-61.3941 144.5148,-95.1339 28.7536,-29.6844 54.3475,-66.3134 74.3365,-106.3875 17.5554,-35.1952 25.3599,-58.0465 34.1535,-100 4.0122,-19.142 5.6377,-34.3891 6.1833,-58 0.5599,-24.2319 1.1456,-27 5.7125,-27 1.295,0 2.9147,-0.675 3.5994,-1.5 0.6847,-0.825 0.895,-1.5 0.4675,-1.5 -0.4276,0 0.049,-0.9129 1.0585,-2.0287 1.4021,-1.5493 1.775,-3.342 1.5784,-7.5867 -0.185,-3.9934 0.197,-6.0602 1.357,-7.3419 1.9356,-2.1389 2.3793,-18.79328 0.6222,-23.3578 -1.4746,-3.83096 -1.3615,-5.00553 0.4164,-4.32327 1.2635,0.48483 1.5,-0.81517 1.5,-8.24379 0,-4.85067 -0.5099,-10.28209 -1.1331,-12.06983 -0.6232,-1.78775 -1.6513,-7.5924 -2.2847,-12.89923 -0.7835,-6.56579 -1.5398,-9.5689 -2.3668,-9.39878 -0.6685,0.1375 -1.2769,-0.7625 -1.3521,-2 -0.075,-1.2375 -0.2553,-4.93505 -0.4003,-8.21677 -0.145,-3.28172 -0.7585,-6.13172 -1.3633,-6.33333 -0.6048,-0.20161 -1.0997,-1.00847 -1.0997,-1.79302 0,-0.78455 -0.9,-2.19706 -2,-3.13891 -1.1,-0.94185 -2,-2.68234 -2,-3.86777 0,-2.30579 -2.2516,-4.81529 -3.342,-3.72486 -0.3619,0.3619 -0.658,0.13299 -0.658,-0.50867 0,-0.64167 0.4079,-1.16667 0.9064,-1.16667 0.4985,0 0.6807,-1.0125 0.4049,-2.25 -1.3251,-5.94499 -2.5973,-8.75 -3.9683,-8.75 -1.1248,0 -1.3475,-0.70323 -0.8868,-2.80046 0.3568,-1.6248 -0.013,-4.24859 -0.8814,-6.25 -0.8231,-1.89725 -1.5278,-2.77454 -1.5661,-1.94954 -0.054,1.15962 -0.3085,1.08911 -1.1228,-0.31074 -0.5793,-0.9959 -0.7996,-2.47177 -0.4896,-3.27971 0.7839,-2.04263 -2.3579,-9.55129 -3.6598,-8.74669 -0.6712,0.41485 -0.8412,-0.15465 -0.4698,-1.57467 0.6674,-2.55208 -1.0598,-8.3341 -2.2667,-7.58819 -1.0629,0.65689 -3.1612,-5.43018 -2.3335,-6.76938 0.4022,-0.65074 0.1471,-0.73344 -0.6819,-0.22108 -0.9617,0.59434 -1.1496,0.36276 -0.6859,-0.8455 0.3512,-0.91522 0.2087,-1.66404 -0.3167,-1.66404 -1.2309,0 -4.1445,-6.92809 -3.412,-8.1133 0.3062,-0.49545 -0.1468,-1.17079 -1.0066,-1.50075 -0.8599,-0.32996 -1.5634,-1.65022 -1.5634,-2.93392 0,-1.2837 -0.4573,-2.61665 -1.0163,-2.96211 -0.559,-0.34546 -0.7574,-1.04702 -0.441,-1.55902 0.3164,-0.51199 0.1291,-0.9309 -0.4163,-0.9309 -0.9176,0 -2.7125,-4.01058 -2.1877,-4.8882 0.1277,-0.2135 -0.2202,-0.66776 -0.7731,-1.00946 -0.5529,-0.3417 -1.1538,-1.28129 -1.3354,-2.08799 -0.1816,-0.8067 -0.9186,-2.09797 -1.6377,-2.86948 -0.7191,-0.77151 -1.0618,-2.0431 -0.7615,-2.82575 0.3004,-0.78265 0.1535,-1.18034 -0.3264,-0.88377 -1.0477,0.64749 -3.6891,-5.30862 -3.2974,-7.43535 0.2455,-1.33333 0.1622,-1.33333 -0.7502,0 -0.7124,1.04111 -1.0311,1.11151 -1.0417,0.23013 -0.01,-0.69843 -1.1459,-3.06093 -2.5278,-5.25 -1.3819,-2.18907 -2.1694,-3.98702 -1.75,-3.99544 0.4194,-0.008 0.2828,-0.34592 -0.3035,-0.75 -1.0094,-0.69571 -5.683,-7.5213 -8.0054,-11.69167 -0.5893,-1.05819 -1.6455,-2.11533 -2.3471,-2.3492 -1.0066,-0.33552 -1.0326,0.0739 -0.1234,1.94048 1.0881,2.23413 1.0667,2.25903 -0.386,0.44774 -0.9844,-1.22744 -1.2035,-2.32126 -0.6085,-3.03818 1.3594,-1.638 -4.8005,-10.82044 -6.7554,-10.07024 -1.1183,0.42911 -1.2259,0.25269 -0.4306,-0.70559 0.7846,-0.94539 0.1461,-2.51208 -2.4544,-6.0229 C 1385.39,774.13531 1383.3464,772 1382.7817,772 c -0.6051,0 -0.5155,0.61579 0.2183,1.5 0.6847,0.825 0.9954,1.5 0.6905,1.5 -0.3049,0 -1.5735,-1.43125 -2.8191,-3.18056 -1.2456,-1.74931 -1.7262,-2.84776 -1.0681,-2.44099 1.7173,1.06133 1.4947,-1.50796 -0.36,-4.15594 -1.499,-2.14011 -4.2051,-3.26408 -2.9433,-1.22251 1.006,1.62773 -0.1417,1.13977 -1.6276,-0.69196 -1.1171,-1.37721 -1.122,-1.5412 -0.026,-0.88157 0.9701,0.58397 1.2449,0.28835 0.9837,-1.05804 -0.1994,-1.02764 -1.1065,-1.87432 -2.0159,-1.88153 -0.9093,-0.007 -2.6937,-1.33567 -3.9652,-2.95215 -1.2715,-1.61647 -1.7577,-2.59652 -1.0803,-2.17788 2.1026,1.29945 1.3664,-1.31357 -1.3871,-4.92359 -2.3159,-3.03631 -5.4799,-5.01991 -3.8813,-2.43328 1.1603,1.87749 -0.1477,1.00413 -2.5757,-1.71974 -1.3334,-1.49586 -1.6368,-2.11576 -0.6743,-1.37755 2.0017,1.53526 2.2257,0.85468 0.6733,-2.04601 -0.5922,-1.1065 -1.6693,-1.78442 -2.3935,-1.50649 -1.5883,0.60948 -5.986,-3.80302 -5.1456,-5.16288 0.3266,-0.52839 -0.1888,-1.5742 -1.1452,-2.32402 -1.6019,-1.25585 -1.6259,-1.20567 -0.3043,0.63669 0.7892,1.1 -5.3983,-4.74437 -13.75,-12.9875 -14.2437,-14.05869 -17.5972,-17.6494 -13.4347,-14.38494 1.5836,1.24196 1.6204,1.20712 0.3867,-0.36655 -0.7498,-0.95644 -1.7715,-1.48671 -2.2704,-1.17837 -0.4989,0.30834 -4.1604,-2.30451 -8.1367,-5.80633 -3.9763,-3.50182 -9.5925,-8.30132 -12.4806,-10.66556 -2.888,-2.36423 -5.0156,-4.67931 -4.7281,-5.14461 0.7135,-1.15439 -13.2872,-12.21291 -14.8069,-11.69534 -0.6677,0.2274 -4.589,-2.12174 -8.714,-5.22031 -4.125,-3.09857 -9.8625,-7.12444 -12.75,-8.94637 -2.8875,-1.82194 -5.25,-3.51726 -5.25,-3.76738 0,-0.25013 0.5625,-0.11684 1.25,0.2962 0.8063,0.48443 0.7489,0.13363 -0.1617,-0.98832 -0.8881,-1.09416 -1.6518,-1.35084 -2.059,-0.69203 -0.426,0.6893 -1.3107,0.53373 -2.5883,-0.45512 -1.9113,-1.4794 -1.9104,-1.49226 0.059,-0.84059 2.4636,0.81518 1.8009,0.0313 -1.3707,-1.62119 -1.796,-0.9358 -2.1909,-0.94445 -1.6293,-0.0357 0.5479,0.88658 0.1235,0.86889 -1.6267,-0.0678 -1.5855,-0.84857 -1.9254,-1.41483 -1.0287,-1.71376 0.7367,-0.24554 -1.4098,-1.97014 -4.7698,-3.83244 -7.6079,-4.21663 -9.4599,-4.44081 -2.3248,-0.28141 2.8875,1.68327 5.25,3.2911 5.25,3.57296 0,0.28187 -1.9125,-0.58911 -4.25,-1.9355 -2.3375,-1.34639 -7.2451,-4.10418 -10.9058,-6.12842 -3.6607,-2.02425 -6.9201,-4.36894 -7.243,-5.21042 -0.3229,-0.84149 -0.9996,-1.275 -1.5039,-0.96336 -1.2508,0.77304 -4.2101,-0.44831 -3.5752,-1.47555 0.2808,-0.45436 -0.016,-1.15174 -0.6603,-1.54972 -0.7312,-0.45192 -0.9029,-0.29014 -0.4573,0.4309 0.8147,1.31825 0.4457,1.418 -1.9066,0.51535 -1.3455,-0.51634 -1.4093,-0.82273 -0.3317,-1.59434 0.9925,-0.71079 0.8801,-0.80883 -0.4397,-0.38321 -2.0779,0.67015 -13.182,-4.48374 -11.6715,-5.41727 0.563,-0.34798 -0.3836,-0.63269 -2.1036,-0.63269 -1.7201,0 -3.4253,-0.4125 -3.7894,-0.91666 -0.3641,-0.50417 -1.337,-1.03295 -2.162,-1.17507 -4.0756,-0.7021 -18.1464,-7.04418 -16.8961,-7.61553 0.7678,-0.35092 0.2674,-0.42907 -1.1122,-0.17366 -1.3796,0.2554 -3.1796,-0.009 -4,-0.58835 -1.2339,-0.87079 -1.1803,-0.95199 0.3102,-0.46985 1.1231,0.36328 1.5559,0.18476 1.1489,-0.47384 -0.3592,-0.58119 -1.3183,-0.80144 -2.1314,-0.48944 -2.1628,0.82993 -6.4211,-0.45738 -5.6484,-1.70754 0.4114,-0.66568 0.035,-0.82465 -1.0058,-0.42514 -0.9147,0.35097 -2.676,0.18975 -3.9141,-0.35827 l -2.2511,-0.9964 2.2514,0.43495 c 1.329,0.25676 1.9997,0.0278 1.6371,-0.55891 -0.3378,-0.54662 -1.5624,-0.74591 -2.7212,-0.44287 -2.7953,0.73098 -6.8152,-0.32847 -6.0352,-1.59056 0.3835,-0.62044 -0.1984,-0.74121 -1.532,-0.31796 -1.4764,0.4686 -2.0641,0.28574 -1.8752,-0.58348 0.1513,-0.69628 -0.6249,-1.42939 -1.7249,-1.62912 -1.6639,-0.30212 -1.748,-0.18097 -0.5,0.72099 1.1469,0.82892 0.7938,0.92375 -1.5,0.40285 -1.65,-0.3747 -3.381,-1.32623 -3.8468,-2.1145 -0.5053,-0.85532 -1.7149,-1.21996 -3,-0.90432 -1.1842,0.29089 -6.6532,-0.76047 -12.1532,-2.33636 -5.5,-1.57589 -9.1,-2.93266 -8,-3.01506 l 2,-0.1498 -2,-0.85943 c -1.1,-0.47269 -2.675,-0.88417 -3.5,-0.9144 -1.3333,-0.0489 -1.3333,0.0612 0,0.99039 1.5543,1.08318 1.6372,1.09024 -8.5,-0.72311 -3.5904,-0.64226 -3.744,-0.7819 -1.5,-1.36366 2.109,-0.54677 1.6398,-0.84062 -3,-1.87883 -3.025,-0.67688 -7.75,-1.42129 -10.5,-1.65423 -3.8003,-0.32191 -3.1252,-0.0428 2.8136,1.16325 4.2974,0.87274 7.6347,1.76562 7.4161,1.98419 -0.2185,0.21856 -4.8596,-0.27518 -10.3135,-1.09721 -5.4539,-0.82203 -10.5912,-1.56111 -11.4162,-1.6424 -0.825,-0.0813 0.3,-0.43546 2.5,-0.78705 3.7742,-0.60316 3.5484,-0.7088 -4,-1.87115 -11.7866,-1.815 -35.9755,-3.18982 -52.5,-2.98395 -7.975,0.0994 -10.9,0.30504 -6.5,0.45708 21.5572,0.74489 50.4311,2.53453 54,3.34699 3.723,0.84752 3.6191,0.88056 -1.5,0.47695 -51.075,-4.02692 -86.34006,-2.34963 -126.61253,6.02199 -6.66189,1.38483 -12.96189,2.24082 -14,1.90218 -1.3887,-0.45299 -1.53101,-0.36082 -0.53855,0.34879 1.00335,0.7174 0.46132,1.131 -2.11576,1.61446 -1.90557,0.35749 -4.31258,0.37347 -5.34892,0.0355 -1.32883,-0.43334 -1.50166,-0.33946 -0.58635,0.31848 1.69537,1.21866 -10.54507,4.62858 -13.33024,3.71352 -1.42106,-0.46688 -1.59402,-0.37921 -0.62263,0.31561 1.03529,0.74053 0.76574,1.10747 -1.17054,1.59344 -1.38355,0.34725 -3.33881,0.36432 -4.34502,0.0379 -1.39824,-0.45356 -1.50344,-0.36112 -0.44632,0.39219 1.06344,0.75781 0.66458,1.14346 -1.7256,1.66843 -1.70981,0.37554 -3.63925,0.35492 -4.28765,-0.0458 -0.70594,-0.4363 -0.91357,-0.29929 -0.51755,0.3415 0.82489,1.3347 -14.79959,6.69856 -16.48255,5.65843 -0.6916,-0.42743 -0.91378,-0.29971 -0.53757,0.30901 0.82253,1.33088 -10.77625,5.73311 -12.42331,4.71517 -0.69928,-0.43218 -0.96028,-0.33583 -0.61289,0.22625 0.33277,0.53843 -4.66021,3.13868 -11.09549,5.77833 -6.43529,2.63965 -19.12553,8.59811 -28.20053,13.24102 -9.075,4.64292 -16.03789,7.97259 -15.4731,7.39928 0.5648,-0.57331 8.4398,-4.86706 17.5,-9.54167 9.06021,-4.67461 16.12193,-8.51 15.69272,-8.5231 -1.35617,-0.0414 -23.77065,11.35431 -35.21962,17.90592 -15.39985,8.81248 -23.56264,14.1599 -23.00133,15.06812 0.26362,0.42654 -0.30324,1.38902 -1.25968,2.13884 -1.57367,1.2337 -1.60851,1.19694 -0.36655,-0.38669 0.75485,-0.9625 1.10604,-1.75 0.78042,-1.75 -0.82771,0 -8.04416,4.08656 -8.65286,4.89998 -0.40123,0.53617 -10.89621,8.22523 -15.4177,11.29565 -0.56341,0.38259 -0.70267,1.01733 -0.30947,1.41053 0.3932,0.3932 1.61767,-0.10207 2.72104,-1.10061 1.10337,-0.99854 2.00613,-1.57147 2.00613,-1.27318 0,0.2983 -3.2625,3.0997 -7.25,6.22535 -3.9875,3.12565 -5.48753,4.07634 -3.33339,2.11264 6.27717,-5.72223 2.34943,-4.11305 -5.1097,2.09342 -9.31016,7.74665 -15.30064,13.53735 -14.81586,14.32174 0.49415,0.79956 -31.05584,31.10914 -33.84307,32.5125 -1.09452,0.55109 -2.16635,1.67698 -2.38183,2.50198 -0.25888,0.99114 0.13487,0.84628 1.1607,-0.427 0.85387,-1.05985 1.771,-1.70848 2.03808,-1.44141 0.26707,0.26708 -2.07602,2.93423 -5.20688,5.927 -3.13086,2.99278 -4.84999,4.42891 -3.82028,3.19141 1.02971,-1.2375 1.46496,-2.24432 0.96722,-2.23738 -0.49775,0.007 -3.15499,2.57346 -5.90499,5.70337 -5.38692,6.13112 -13.1856,16.82577 -11.51805,15.79517 1.85863,-1.1487 1.05618,0.65131 -2.15989,4.84494 -5.73671,7.48044 -6.44117,7.20002 -0.89459,-0.3561 1.51727,-2.06698 1.84611,-2.93206 0.80316,-2.11287 -1.89271,1.48664 -14.47216,19.27574 -15.47057,21.87754 -0.43852,1.14276 -0.21789,1.34161 0.82,0.73905 0.84201,-0.48885 1.08077,-0.45386 0.58661,0.0859 -0.45834,0.50068 -1.32084,0.91033 -1.91667,0.91033 -0.59583,0 -1.29171,0.62514 -1.5464,1.3892 -0.30868,0.92603 -0.0349,1.12457 0.82118,0.59549 0.84836,-0.52432 1.03864,-0.39632 0.56063,0.37711 -0.39798,0.64395 -1.10075,0.93774 -1.56169,0.65286 -1.27617,-0.78872 -10.19102,13.72155 -9.6669,15.73434 0.25048,0.96196 -0.0219,2.04399 -0.60521,2.40451 -0.66831,0.41304 -0.76138,0.17131 -0.25161,-0.65351 0.55142,-0.89222 0.41971,-1.06841 -0.41367,-0.55336 -0.67247,0.41561 -0.97215,1.40852 -0.66596,2.20645 0.3062,0.79793 0.13445,1.18981 -0.38165,0.87084 -0.51611,-0.31897 -1.41095,0.30307 -1.98855,1.38232 -1.55061,2.89735 -1.27537,3.75987 0.4898,1.53488 0.84699,-1.06762 -0.0587,1.32137 -2.01257,5.30887 -1.9539,3.9875 -3.77947,7.25 -4.05682,7.25 -0.27735,0 0.65894,-2.29549 2.08064,-5.10109 1.42171,-2.80559 2.14648,-4.83011 1.6106,-4.49892 -0.53587,0.33119 -2.3665,3.5772 -4.06807,7.21336 -3.22652,6.89493 -4.05322,9.68905 -1.59375,5.38665 2.20608,-3.85913 1.7571,-1.58268 -0.6753,3.42392 -1.19642,2.46259 -2.57651,4.22947 -3.06688,3.9264 -0.49037,-0.30306 -0.80817,0.0566 -0.70622,0.79933 0.39562,2.88204 -0.0959,4.94102 -1.04015,4.35743 -0.58718,-0.3629 -0.72119,0.0858 -0.33006,1.10503 0.44376,1.15641 0.28072,1.4825 -0.5,1 -0.78071,-0.48251 -0.94376,-0.15642 -0.5,1 0.41438,1.07985 0.26664,1.4738 -0.39855,1.0627 -0.58137,-0.35931 -1.03695,-0.0956 -1.0124,0.58595 0.11367,3.1563 -0.3498,4.80823 -1.20134,4.28195 -0.512,-0.31644 -1.25653,-0.0485 -1.65451,0.59549 -0.48506,0.78484 -0.28698,0.90097 0.60084,0.35226 1.00139,-0.61889 1.13609,-0.35168 0.55223,1.0955 -0.42473,1.05272 -1.22003,3.15101 -1.76735,4.66285 -0.54733,1.51185 -1.35414,2.52694 -1.79294,2.25575 -0.90958,-0.56216 -2.33051,2.50563 -1.53091,3.30523 C 621.76441,861.09774 622,860.73333 622,860 c 0,-0.73333 0.23559,-1.09774 0.52354,-0.80979 0.9333,0.93329 -0.70004,3.81874 -1.78283,3.14954 -0.61922,-0.3827 -0.75215,-0.16727 -0.32412,0.52529 0.89953,1.45546 -1.26751,8.34513 -2.40392,7.64279 -0.45438,-0.28082 -0.57223,0.4604 -0.26189,1.64716 0.42037,1.60751 0.22969,1.95097 -0.74776,1.34687 -0.87272,-0.53936 -1.07127,-0.42131 -0.59298,0.35258 0.99039,1.60248 -0.3135,5.32326 -1.58917,4.53485 -0.66835,-0.41306 -0.78205,0.15767 -0.32087,1.61071 0.53518,1.68621 0.39407,2.05257 -0.5628,1.46118 -0.88973,-0.54988 -1.0963,-0.31817 -0.68106,0.76393 0.77948,2.03128 -2.63261,13.04189 -3.73194,12.04275 -0.46467,-0.42232 -0.54089,-0.2373 -0.16938,0.41116 C 610.11672,896.0089 607.9662,905 606.88621,905 c -0.38443,0 -0.46362,0.9 -0.17596,2 0.30399,1.16245 0.0307,2 -0.65264,2 -0.6466,0 -0.94397,0.37486 -0.6608,0.83303 0.28316,0.45817 -0.81749,6.42067 -2.44589,13.25 -3.94322,16.53748 -8.40048,40.54438 -10.38186,55.91697 -1.82875,14.1884 -3.45501,47.9368 -2.31906,48.1254 0.4125,0.069 1.2,0.2371 1.75,0.3746 0.55,0.1375 1.65917,0.3063 2.46482,0.375 2.58949,0.221 3.45137,3.5907 4.54042,17.7516 1.24968,16.2496 4.80785,53.3205 5.60286,58.3734 3.22697,20.51 9.9519,44.0632 21.69961,76 9.75732,26.5258 31.60224,68.5989 48.54648,93.5 15.97055,23.4702 37.75453,50.1866 52.2937,64.1344 14.04385,13.4726 39.68468,32.2516 70.85211,51.8913 14.99307,9.4477 42.72046,23.1894 62.5,30.9752 42.86967,16.8746 93.17716,27.6103 140,29.8761 10.7672,0.521 47.5929,-0.3585 61,-1.4568 z m -64,-212.0222 c -32.0427,-3.3484 -65.03656,-15.3343 -93.5,-33.9662 -15.29281,-10.0105 -24.58938,-17.6883 -37.01419,-30.5687 -14.90019,-15.4466 -24.51562,-29.4206 -36.01451,-52.3394 -8.89369,-17.7263 -13.66147,-30.9284 -20.95452,-58.0237 -1.70246,-6.325 -4.46507,-15.9156 -6.13914,-21.3124 -1.67406,-5.3968 -2.7955,-10.4593 -2.49208,-11.25 0.4358,-1.1357 3.23615,-1.4674 13.33306,-1.5795 8.59282,-0.095 11.47055,-0.3766 8.78138,-0.8581 l -4,-0.7162 4.875,-0.1419 c 4.84683,-0.1411 4.87158,-0.159 4.28275,-3.1031 -0.32573,-1.6287 -0.17972,-3.2162 0.32448,-3.5278 0.50419,-0.3116 1.22313,1.1334 1.59763,3.2112 0.37451,2.0778 1.01266,4.2278 1.41812,4.7778 0.40546,0.55 1.26846,4.825 1.91778,9.5 2.12591,15.3063 3.26828,21.3778 5.65778,30.0704 9.25307,33.661 23.01985,57.8692 47.28744,83.1525 19.54023,20.3582 40.68372,34.2748 69.41166,45.6868 20.21196,8.029 37.96367,11.3532 60.72736,11.3719 54.5519,0.045 110.3634,-20.1512 148,-53.5551 25.3696,-22.5165 44.7767,-50.4207 53.9046,-77.5061 2.5826,-7.6636 7.938,-31.4466 9.2642,-41.1421 0.1821,-1.3319 0.9563,-2.6278 1.7204,-2.8797 0.9601,-0.3166 1.1324,-0.032 0.558,0.9217 -0.6244,1.0366 -0.3721,1.0067 1.0145,-0.1203 1.0151,-0.825 2.0015,-1.3875 2.192,-1.25 0.1905,0.1375 2.2588,0.1978 4.5963,0.134 2.3375,-0.064 3.35,-0.3325 2.25,-0.5971 -5.068,-1.219 -3.4007,-2.2859 3.55,-2.2716 4.9195,0.01 6.9567,0.3274 5.9977,0.934 -0.7987,0.5053 -1.8112,0.6969 -2.25,0.4257 -0.4387,-0.2712 -0.7977,-0.082 -0.7977,0.4209 0,0.5027 3.2033,1.1826 7.1184,1.5108 3.9151,0.3282 7.3081,0.7865 7.54,1.0184 0.2319,0.2318 -0.8955,3.741 -2.5052,7.7982 -1.6097,4.0572 -5.5016,15.4767 -8.6485,25.3767 -17.6813,55.6243 -32.7531,79.9058 -69.5124,111.9888 -35.5544,31.0313 -82.2094,52.3659 -126.9543,58.0541 -12.3868,1.5747 -43.0257,1.7671 -56.538,0.3551 z m 13.8735,-140.4117 c -16.31898,-4.3996 -36.02994,-19.3844 -46.69187,-35.4964 -4.59967,-6.9509 -9.08471,-19.164 -11.24378,-30.6175 -2.16858,-11.504 -1.53255,-29.3345 1.33393,-37.39488 8.0103,-22.52444 25.13373,-37.76148 52.22822,-46.47455 12.2563,-3.94139 29.1791,-4.61156 40.9953,-1.62347 11.1008,2.80714 18.7603,6.51843 28.5047,13.81151 15.7407,11.78091 21.5734,20.06049 24.6699,35.01916 5.3506,25.84863 -1.9179,61.14793 -16.3749,79.52383 -6.6965,8.5116 -28.4088,20.0294 -43.9014,23.2884 -8.6706,1.8239 -22.6844,1.8068 -29.5201,-0.036 z M 1031,1075 c 2.0435,-0.6544 1.6395,-0.8188 -2.2125,-0.9003 -2.5919,-0.055 -7.1851,-1.0248 -10.2072,-2.1556 -11.2834,-4.2216 -27.60555,-17.0692 -27.56499,-21.697 0.0402,-4.5898 4.05468,-5.3542 8.21666,-1.5644 8.86923,8.076 25.68303,11.4883 44.63033,9.0576 6.2362,-0.8 11.3775,-4.828 17.1198,-13.4128 1.9029,-2.8448 3.7596,-4.9872 4.126,-4.7607 0.3663,0.2264 0.6241,-0.146 0.5728,-0.8276 -0.051,-0.6815 0.2022,-2.8142 0.5634,-4.7392 0.3612,-1.925 1.408,-8 2.3263,-13.5 1.8124,-10.8548 2.7655,-13.5 4.8639,-13.5 0.9065,0 1.4936,-1.5933 1.75,-4.75 0.7877,-9.69597 -9.5397,-23.18218 -22.6791,-29.61592 -8.5447,-4.18394 -20.9069,-6.9393 -27.4603,-6.12051 -13.8137,1.72591 -25.5389,7.74241 -34.73134,17.82157 -10.00774,10.97309 -16.19791,28.15366 -14.97231,41.55486 1.47129,16.0877 17.28685,35.3213 37.40445,45.4884 7.942,4.0137 13.5534,5.127 18.2541,3.6216 z m -11.1875,-23.6831 c 0.7219,-0.2889 1.5844,-0.2534 1.9167,0.079 0.3323,0.3323 -0.2584,0.5687 -1.3125,0.5253 -1.165,-0.048 -1.4019,-0.285 -0.6042,-0.6042 z m 6,0 c 0.7219,-0.2889 1.5844,-0.2534 1.9167,0.079 0.3323,0.3323 -0.2584,0.5687 -1.3125,0.5253 -1.165,-0.048 -1.4019,-0.285 -0.6042,-0.6042 z m 31.3824,-32.8169 c 0.02,-1.65 0.2445,-2.2039 0.4981,-1.231 0.2535,0.973 0.2369,2.323 -0.037,3 -0.2739,0.6771 -0.4813,-0.119 -0.461,-1.769 z m -0.116,-6.0833 c 0.048,-1.165 0.285,-1.4019 0.6042,-0.6042 0.2889,0.7219 0.2534,1.5844 -0.079,1.9167 -0.3323,0.3323 -0.5687,-0.2584 -0.5253,-1.3125 z m -28.2664,-25.09981 c 0.7219,-0.28887 1.5844,-0.25335 1.9167,0.0789 0.3323,0.33229 -0.2584,0.56864 -1.3125,0.52522 -1.165,-0.048 -1.4019,-0.28494 -0.6042,-0.60416 z m 13.6227,84.57831 c -0.3043,-0.4924 -0.1135,-0.8952 0.424,-0.8952 0.5375,0 1.7628,-0.3015 2.7231,-0.6699 1.1823,-0.4537 1.5147,-0.2961 1.0298,0.4885 -0.4672,0.756 -0.1787,0.9523 0.8302,0.5652 0.8504,-0.3264 1.2972,-0.9962 0.9929,-1.4886 -0.3043,-0.4924 -0.3385,-0.8952 -0.076,-0.8952 0.2625,0 1.2628,-0.3015 2.2231,-0.6699 1.2534,-0.481 1.5245,-0.3119 0.9611,0.5997 -0.6194,1.0021 -0.3378,1.0305 1.3359,0.1348 1.1664,-0.6242 2.1562,-1.6816 2.1996,-2.3498 0.062,-0.9513 0.186,-0.9509 0.5722,0 0.3425,0.8448 1.6997,0.4181 4.4414,-1.3963 2.1715,-1.437 3.7179,-2.843 3.4365,-3.1244 -0.6649,-0.6649 1.4357,-3.1957 2.6525,-3.1957 0.5151,0 0.6154,0.5195 0.223,1.1545 -0.4456,0.721 -0.2739,0.8828 0.4573,0.4309 0.644,-0.398 0.9434,-1.0915 0.6655,-1.5412 -0.2779,-0.4497 0.1648,-1.3737 0.9837,-2.0533 0.819,-0.6797 1.4753,-1.7432 1.4586,-2.3633 -0.017,-0.6202 -0.486,-0.3456 -1.0428,0.6101 -1.3207,2.2668 -3.9262,3.6142 -8.3478,4.3169 -4.1676,0.6623 -4.4112,0.024 -1.3326,-3.4901 1.8016,-2.0568 1.6031,-1.9825 -1.0025,0.375 -2.1028,1.9025 -2.85,3.1859 -2.1183,3.6382 1.2889,0.7965 0.3139,2.9223 -1.3402,2.9223 -0.6032,0 -2.4891,1.0243 -4.191,2.2763 -1.7019,1.252 -4.7069,3.1139 -6.6777,4.1377 -3.3199,1.7245 -5.2392,5.0307 -2.2558,3.8859 0.7302,-0.2802 1.0786,-0.9123 0.7743,-1.4047 z m 15.2981,-7.0193 c 0.6784,-0.6834 1.4853,-0.9907 1.7932,-0.6828 0.3078,0.3079 -0.2472,0.8671 -1.2334,1.2426 -1.4252,0.5427 -1.54,0.4278 -0.5598,-0.5598 z m -1.7143,-8.3988 c 1.0568,-1.2733 0.9949,-1.4197 -0.3776,-0.893 -0.9028,0.3464 -1.6414,1.0317 -1.6414,1.5229 0,1.2859 0.5789,1.1054 2.019,-0.6299 z m 22.6433,-48.7271 c -0.2774,-0.6875 -0.5044,-0.125 -0.5044,1.25 0,1.375 0.227,1.9375 0.5044,1.25 0.2774,-0.6875 0.2774,-1.8125 0,-2.5 z M 1229,1029.941 c 0,-0.5825 0.45,-0.7809 1,-0.441 0.55,0.3399 1,0.8165 1,1.059 0,0.2426 -0.45,0.441 -1,0.441 -0.55,0 -1,-0.4766 -1,-1.059 z m 10.2637,-3.6586 c 1.5201,-0.2298 3.7701,-0.2237 5,0.014 1.23,0.2373 -0.014,0.4254 -2.7637,0.4179 -2.75,-0.01 -3.7563,-0.2017 -2.2363,-0.4316 z M 739.75,1025.2678 c 2.3375,-0.2105 6.1625,-0.2105 8.5,0 2.3375,0.2105 0.425,0.3828 -4.25,0.3828 -4.675,0 -6.5875,-0.1723 -4.25,-0.3828 z m 528,-0.01 c 2.8875,-0.202 7.6125,-0.202 10.5,0 2.8875,0.202 0.525,0.3672 -5.25,0.3672 -5.775,0 -8.1375,-0.1652 -5.25,-0.3672 z m 89.5734,-1.0125 c 19.7029,-0.1516 51.6529,-0.1516 71,2e-4 19.3471,0.1518 3.2266,0.2758 -35.8234,0.2757 -39.05,0 -54.8795,-0.1242 -35.1766,-0.2759 z M 828.232,1015 c 0,-1.925 0.2058,-2.7125 0.45733,-1.75 0.25152,0.9625 0.25152,2.5375 0,3.5 -0.25153,0.9625 -0.45733,0.175 -0.45733,-1.75 z m 399.0202,-0.5 c 0.011,-2.2 0.2159,-2.9823 0.4551,-1.7383 0.2392,1.2439 0.2301,3.0439 -0.02,4 -0.2503,0.956 -0.446,-0.062 -0.4349,-2.2617 z m 237,-9 c 0.011,-2.2 0.2159,-2.9823 0.4551,-1.7383 0.2392,1.2439 0.2301,3.0439 -0.02,4 -0.2503,0.956 -0.446,-0.062 -0.4349,-2.2617 z m -634.94233,-7 c 0.006,-3.3 0.1923,-4.52944 0.41486,-2.73209 0.22256,1.79735 0.21797,4.49739 -0.0102,5.99999 -0.22818,1.5027 -0.41027,0.032 -0.40466,-3.2679 z M 1226.1579,998 c 0,-1.375 0.227,-1.9375 0.5044,-1.25 0.2774,0.6875 0.2774,1.8125 0,2.5 -0.2774,0.6875 -0.5044,0.125 -0.5044,-1.25 z m 237.5346,-5.5 c 0.3068,-3.3 0.7266,-6.1875 0.9327,-6.41667 0.6693,-0.74404 0.1611,6.33207 -0.6762,9.41667 -0.5356,1.97271 -0.6234,0.94543 -0.2565,-3 z M 830.15789,988 c 0,-1.375 0.22698,-1.9375 0.50439,-1.25 0.27741,0.6875 0.27741,1.8125 0,2.5 -0.27741,0.6875 -0.50439,0.125 -0.50439,-1.25 z m 632.00001,0 c 0,-1.375 0.227,-1.9375 0.5044,-1.25 0.2774,0.6875 0.2774,1.8125 0,2.5 -0.2774,0.6875 -0.5044,0.125 -0.5044,-1.25 z m -631.00001,-6 c 0,-1.375 0.22698,-1.9375 0.50439,-1.25 0.27741,0.6875 0.27741,1.8125 0,2.5 -0.27741,0.6875 -0.50439,0.125 -0.50439,-1.25 z m 629.92101,-1.58333 c 0.048,-1.16495 0.285,-1.4019 0.6042,-0.60417 0.2889,0.72187 0.2534,1.58438 -0.079,1.91667 -0.3323,0.33229 -0.5687,-0.25834 -0.5253,-1.3125 z M 1463.1579,979 c 0,-1.375 0.227,-1.9375 0.5044,-1.25 0.2774,0.6875 0.2774,1.8125 0,2.5 -0.2774,0.6875 -0.5044,0.125 -0.5044,-1.25 z m -3.079,-5.58333 c 0.048,-1.16495 0.285,-1.4019 0.6042,-0.60417 0.2889,0.72187 0.2534,1.58438 -0.079,1.91667 -0.3323,0.33229 -0.5687,-0.25834 -0.5253,-1.3125 z m -1,-6 c 0.048,-1.16495 0.285,-1.4019 0.6042,-0.60417 0.2889,0.72187 0.2534,1.58438 -0.079,1.91667 -0.3323,0.33229 -0.5687,-0.25834 -0.5253,-1.3125 z m -1,-6 c 0.048,-1.16495 0.285,-1.4019 0.6042,-0.60417 0.2889,0.72187 0.2534,1.58438 -0.079,1.91667 -0.3323,0.33229 -0.5687,-0.25834 -0.5253,-1.3125 z M 1459.1579,953 c 0,-1.375 0.227,-1.9375 0.5044,-1.25 0.2774,0.6875 0.2774,1.8125 0,2.5 -0.2774,0.6875 -0.5044,0.125 -0.5044,-1.25 z m -3.079,-4.58333 c 0.048,-1.16495 0.285,-1.4019 0.6042,-0.60417 0.2889,0.72187 0.2534,1.58438 -0.079,1.91667 -0.3323,0.33229 -0.5687,-0.25834 -0.5253,-1.3125 z m -1,-6 c 0.048,-1.16495 0.285,-1.4019 0.6042,-0.60417 0.2889,0.72187 0.2534,1.58438 -0.079,1.91667 -0.3323,0.33229 -0.5687,-0.25834 -0.5253,-1.3125 z m -2,-11 c 0.048,-1.16495 0.285,-1.4019 0.6042,-0.60417 0.2889,0.72187 0.2534,1.58438 -0.079,1.91667 -0.3323,0.33229 -0.5687,-0.25834 -0.5253,-1.3125 z m 2,-2 c 0.048,-1.16495 0.285,-1.4019 0.6042,-0.60417 0.2889,0.72187 0.2534,1.58438 -0.079,1.91667 -0.3323,0.33229 -0.5687,-0.25834 -0.5253,-1.3125 z M 1456.5,923 c -0.3399,-0.55 -0.1415,-1 0.441,-1 0.5824,0 1.059,0.45 1.059,1 0,0.55 -0.1984,1 -0.441,1 -0.2425,0 -0.7191,-0.45 -1.059,-1 z m -268.6276,-17.75 c -1.2438,-1.58606 -1.2085,-1.62143 0.3776,-0.37756 0.9625,0.75485 1.75,1.54235 1.75,1.75 0,0.82304 -0.8212,0.29331 -2.1276,-1.37244 z M 867,902.62244 c 0,-0.20765 0.7875,-0.99515 1.75,-1.75 1.58606,-1.24387 1.62143,-1.2085 0.37756,0.37756 C 867.82119,902.91575 867,903.44548 867,902.62244 Z m 314.9243,-4.37244 -2.4243,-2.75 2.75,2.42431 c 1.5125,1.33338 2.75,2.57088 2.75,2.75 0,0.78428 -0.8098,0.14598 -3.0757,-2.42431 z M 881,887.5 c 4.65071,-4.675 8.68084,-8.5 8.95584,-8.5 0.275,0 -3.30513,3.825 -7.95584,8.5 -4.65071,4.675 -8.68084,8.5 -8.95584,8.5 -0.275,0 3.30513,-3.825 7.95584,-8.5 z m 284.9243,-5.25 -2.4243,-2.75 2.75,2.42431 c 2.5703,2.26589 3.2086,3.07569 2.4243,3.07569 -0.1791,0 -1.4166,-1.2375 -2.75,-2.75 z m -7.0519,-6 c -1.2438,-1.58606 -1.2085,-1.62143 0.3776,-0.37756 0.9625,0.75485 1.75,1.54235 1.75,1.75 0,0.82304 -0.8212,0.29331 -2.1276,-1.37244 z M 893,876.62244 c 0,-0.20765 0.7875,-0.99515 1.75,-1.75 1.58606,-1.24387 1.62143,-1.2085 0.37756,0.37756 C 893.82119,876.91575 893,877.44548 893,876.62244 Z m 97.8125,-45.30555 c 0.72187,-0.28887 1.58438,-0.25335 1.91667,0.0789 0.33229,0.33229 -0.25834,0.56864 -1.3125,0.52522 -1.16495,-0.048 -1.4019,-0.28494 -0.60417,-0.60416 z m 13.4565,-2.00988 c 0.973,-0.25354 2.323,-0.23687 3,0.0371 0.6771,0.27393 -0.119,0.48137 -1.769,0.46099 -1.65,-0.0204 -2.2039,-0.2445 -1.231,-0.49804 z m 41,0 c 0.973,-0.25354 2.323,-0.23687 3,0.0371 0.6771,0.27393 -0.119,0.48137 -1.769,0.46099 -1.65,-0.0204 -2.2039,-0.2445 -1.231,-0.49804 z m -22.519,-1.03922 c 2.3375,-0.21053 6.1625,-0.21053 8.5,0 2.3375,0.21054 0.425,0.3828 -4.25,0.3828 -4.675,0 -6.5875,-0.17226 -4.25,-0.3828 z M 1412,821 c -0.5887,-1.1 -0.8454,-2 -0.5704,-2 0.275,0 0.9817,0.9 1.5704,2 0.5887,1.1 0.8454,2 0.5704,2 -0.275,0 -0.9817,-0.9 -1.5704,-2 z m -4,-7 c -0.5887,-1.1 -0.8454,-2 -0.5704,-2 0.275,0 0.9817,0.9 1.5704,2 0.5887,1.1 0.8454,2 0.5704,2 -0.275,0 -0.9817,-0.9 -1.5704,-2 z m -6,-10 c -0.5887,-1.1 -0.8454,-2 -0.5704,-2 0.275,0 0.9817,0.9 1.5704,2 0.5887,1.1 0.8454,2 0.5704,2 -0.275,0 -0.9817,-0.9 -1.5704,-2 z m -751,-4 c 0.5887,-1.1 1.29537,-2 1.57037,-2 0.275,0 0.0183,0.9 -0.57037,2 -0.5887,1.1 -1.29537,2 -1.57037,2 -0.275,0 -0.0183,-0.9 0.57037,-2 z m 5,-8 c 0.5887,-1.1 1.29537,-2 1.57037,-2 0.275,0 0.0183,0.9 -0.57037,2 -0.5887,1.1 -1.29537,2 -1.57037,2 -0.275,0 -0.0183,-0.9 0.57037,-2 z m 730,-13 c -1.1749,-1.65 -1.9112,-3 -1.6362,-3 0.275,0 1.4613,1.35 2.6362,3 1.1749,1.65 1.9112,3 1.6362,3 -0.275,0 -1.4613,-1.35 -2.6362,-3 z m -719,-3.5 c 1.70284,-2.475 3.32108,-4.5 3.59608,-4.5 0.275,0 -0.89324,2.025 -2.59608,4.5 -1.70284,2.475 -3.32108,4.5 -3.59608,4.5 -0.275,0 0.89324,-2.025 2.59608,-4.5 z m 13.76015,-19 c 1.13935,-1.65 4.38618,-5.475 7.21518,-8.5 l 5.14365,-5.5 -5.68389,7 c -6.55775,8.07619 -9.67647,11.34679 -6.67494,7 z m 684.64485,-5.75 -1.905,-2.25 2.25,1.90499 c 2.1144,1.79022 2.7052,2.59501 1.905,2.59501 -0.1898,0 -1.2023,-1.0125 -2.25,-2.25 z M 740,695.59831 c 2.75467,-3.08421 12,-11.04832 12,-10.33702 0,0.24614 -3.2625,3.30246 -7.25,6.79182 -3.9875,3.48936 -6.125,5.0847 -4.75,3.5452 z m 553.405,-14.84831 -1.905,-2.25 2.25,1.90499 c 2.1144,1.79022 2.7052,2.59501 1.905,2.59501 -0.1898,0 -1.2023,-1.0125 -2.25,-2.25 z m -6.905,-5.3993 c -3.0115,-2.69092 -3.2367,-3.06387 -0.9112,-1.50913 2.7644,1.84818 6.2407,5.21736 5.2836,5.12088 -0.2048,-0.0207 -2.1724,-1.64594 -4.3724,-3.61175 z M 768,672.62244 c 0,-0.20765 0.7875,-0.99515 1.75,-1.75 1.58606,-1.24387 1.62143,-1.2085 0.37756,0.37756 C 768.82119,672.91575 768,673.44548 768,672.62244 Z m 4,-2.98625 c 0,-0.275 1.35,-1.46129 3,-2.63619 1.65,-1.1749 3,-1.91119 3,-1.63619 0,0.275 -1.35,1.46129 -3,2.63619 -1.65,1.1749 -3,1.91119 -3,1.63619 z m 7,-5.01375 c 0,-0.20765 0.7875,-0.99515 1.75,-1.75 1.58606,-1.24387 1.62143,-1.2085 0.37756,0.37756 C 779.82119,664.91575 779,665.44548 779,664.62244 Z m 11.5,-8.14055 c 1.1,-0.89564 2.9,-2.07029 4,-2.61033 l 2,-0.98189 -2,1.62844 c -1.1,0.89564 -2.9,2.07029 -4,2.61033 l -2,0.98189 z m 6.5,-3.91152 c 0,-0.275 0.9,-0.98167 2,-1.57037 1.1,-0.5887 2,-0.84537 2,-0.57037 0,0.275 -0.9,0.98167 -2,1.57037 -1.1,0.5887 -2,0.84537 -2,0.57037 z m 6.5,-4.06056 c 2.23423,-1.8569 8.56932,-5.28155 7,-3.78409 -0.55,0.52481 -2.8,1.96493 -5,3.20026 -2.2,1.23533 -3.1,1.49805 -2,0.58383 z m 612.8251,677.51249 c 2.6538,-3.2837 4.5262,-6.4538 4.161,-7.0448 -0.9455,-1.5298 -3.4861,0.7622 -3.4861,3.1449 0,1.0327 -0.5027,1.7651 -1.1172,1.6276 -0.6144,-0.1375 -1.266,0.6494 -1.448,1.7487 -0.182,1.0993 -1.2542,2.7464 -2.3828,3.6603 -2.106,1.7053 -2.6285,2.8439 -1.302,2.8373 0.4125,0 2.9213,-2.6904 5.5751,-5.974 z M 1418.5,1320 c 0.3399,-0.55 0.8165,-1 1.059,-1 0.2426,0 0.441,0.45 0.441,1 0,0.55 -0.4766,1 -1.059,1 -0.5825,0 -0.7809,-0.45 -0.441,-1 z m 7.8753,-7.9648 c 2.0824,-2.7307 3.4914,-5.4418 3.1311,-6.0248 -0.3603,-0.583 -0.2215,-0.9363 0.3083,-0.7852 0.5299,0.1512 2.8707,-2.6502 5.2018,-6.2252 2.3312,-3.575 5.0705,-7.7049 6.0874,-9.1777 1.017,-1.4727 2.7052,-4.1727 3.7516,-6 1.0464,-1.8272 4.9201,-8.2229 8.6082,-14.2125 6.9523,-11.2908 12.9197,-23.0967 14.082,-27.8598 0.3691,-1.5125 0.9759,-2.75 1.3484,-2.75 0.3725,0 0.6918,-0.7875 0.7095,-1.75 0.018,-0.9625 0.3985,-2.854 0.8462,-4.2034 0.7612,-2.294 0.7054,-2.3446 -0.8599,-0.7794 -0.9207,0.9207 -2.7344,4.0497 -4.0305,6.9534 -1.296,2.9037 -3.5558,7.0291 -5.0217,9.1677 -3.6865,5.3785 -8.5377,14.6131 -8.5377,16.2525 0,0.7475 -0.4766,1.3592 -1.059,1.3592 -0.5825,0 -0.8101,0.4028 -0.5058,0.8952 0.3043,0.4924 -0.1191,1.1533 -0.9409,1.4686 -0.8219,0.3154 -1.4943,1.4876 -1.4943,2.6048 0,1.1173 -0.525,2.0314 -1.1667,2.0314 -0.6416,0 -0.8846,0.2821 -0.5398,0.6268 0.685,0.685 -1.4909,5.3623 -3.5202,7.5671 -2.3499,2.5531 -3.847,5.8778 -3.1527,7.0013 0.4108,0.6646 0.2353,0.8338 -0.4351,0.4195 -1.0992,-0.6794 -7.9466,10.0445 -7.4293,11.6353 0.1341,0.4125 -0.2457,0.6375 -0.844,0.5 -0.5983,-0.1375 -1.9076,1.2421 -2.9095,3.0657 -1.002,1.8236 -3.0303,5.0597 -4.5075,7.1913 -1.4772,2.1315 -2.3914,4.352 -2.0315,4.9343 0.9016,1.4588 0.6947,1.6234 4.9116,-3.9061 z M 634.38156,831.44806 c 0.34149,-0.88992 0.17385,-1.29132 -0.39301,-0.94098 -0.5437,0.33602 -0.98855,1.0344 -0.98855,1.55194 0,1.43843 0.71677,1.12146 1.38156,-0.61096 z m 834.96354,-24.99119 c -0.3257,-0.84872 -0.8066,-1.32866 -1.0688,-1.06653 -0.2621,0.26213 -0.18,0.95654 0.1826,1.54313 0.986,1.59546 1.5624,1.28551 0.8862,-0.4766 z m -3.5488,-7.41139 c -0.6713,-1.07499 -1.4143,-1.76086 -1.6509,-1.52417 -0.4286,0.4286 1.7507,3.47869 2.4855,3.47869 0.2123,0 -0.1632,-0.87953 -0.8346,-1.95452 z m -93.1414,-42.50235 c -0.3257,-0.84872 -1.0601,-1.54313 -1.632,-1.54313 -0.6581,0 -0.5918,0.71745 0.1808,1.95452 1.3797,2.20937 2.3512,1.93398 1.4512,-0.41139 z M 1357,737.5 c -0.7068,-0.85158 -1.51,-1.32333 -1.785,-1.04833 -0.275,0.275 0.078,1.19675 0.785,2.04833 0.7068,0.85158 1.51,1.32333 1.785,1.04833 0.275,-0.275 -0.078,-1.19675 -0.785,-2.04833 z m -657.4697,-3.30304 c -0.67194,-0.67193 -3.5303,1.82222 -3.5303,3.08047 0,0.5679 0.90276,0.21556 2.00613,-0.78298 1.10337,-0.99854 1.78925,-2.03241 1.52417,-2.29749 z m 649.4239,-5.28261 c -0.6139,-1.1471 -1.3689,-1.83298 -1.6777,-1.52416 -0.3088,0.30881 0.01,1.24735 0.7034,2.08564 1.7979,2.16624 2.2841,1.88599 0.9743,-0.56148 z m -618.18879,-25.4073 c 2.89598,-2.64526 5.0423,-5.03268 4.7696,-5.30537 -0.27269,-0.27269 -3.04945,1.93287 -6.17056,4.90126 -18.6567,17.74371 -22.58135,21.64546 -24.03741,23.89706 -0.88918,1.375 3.28598,-2.26626 9.27814,-8.09169 5.99215,-5.82543 13.26425,-12.75599 16.16023,-15.40126 z m 613.80829,20.71914 c -1.7278,-1.65022 -1.7546,-1.6234 -0.6095,0.60946 0.6588,1.2846 1.4721,2.06139 1.8073,1.72619 0.3352,-0.3352 -0.2038,-1.38624 -1.1978,-2.33565 z m -1.7572,-2.60929 c -0.1741,-0.10056 -1.1763,-0.843 -2.2272,-1.64987 -1.8062,-1.38686 -1.8362,-1.34761 -0.5498,0.71829 0.7484,1.20192 1.7507,1.94436 2.2272,1.64986 0.4765,-0.2945 0.7239,-0.61773 0.5498,-0.71828 z m -6.2428,-5.39071 c -1.7278,-1.65022 -1.7546,-1.6234 -0.6095,0.60946 0.6588,1.2846 1.4721,2.06139 1.8073,1.72619 0.3352,-0.3352 -0.2038,-1.38624 -1.1978,-2.33565 z M 1333,712.5 c -0.7068,-0.85158 -1.51,-1.32333 -1.785,-1.04833 -0.275,0.275 0.078,1.19675 0.785,2.04833 0.7068,0.85158 1.51,1.32333 1.785,1.04833 0.275,-0.275 -0.078,-1.19675 -0.785,-2.04833 z m -3,-1.87756 c 0,-0.20765 -0.7875,-0.99515 -1.75,-1.75 -1.5861,-1.24387 -1.6214,-1.2085 -0.3776,0.37756 1.3064,1.66575 2.1276,2.19548 2.1276,1.37244 z M 659,692.94325 c 0,-0.48009 0.9,-1.35455 2,-1.94325 1.91644,-1.02565 2.91927,-3.52219 1.13811,-2.83333 -1.26149,0.48788 -12.0836,12.99059 -13.27222,15.33333 -0.55811,1.1 1.49375,-0.62887 4.55968,-3.84194 C 656.49151,696.445 659,693.42333 659,692.94325 Z m 659.4015,6.30675 c -7.1162,-6.52849 -18.415,-15.73875 -19.6816,-16.04359 -0.671,-0.16147 0.5478,1.18853 2.7083,3 2.1606,1.81148 7.3356,6.31217 11.5,10.00154 4.1645,3.68937 8.0194,6.72687 8.5664,6.75 0.547,0.0231 -0.8449,-1.64545 -3.0931,-3.70795 z M 1400,700.62244 c 0,-0.20765 -0.7875,-0.99515 -1.75,-1.75 -1.5861,-1.24387 -1.6214,-1.2085 -0.3776,0.37756 1.3064,1.66575 2.1276,2.19548 2.1276,1.37244 z M 669.72915,682.25 C 681.03524,670.07518 686.10233,664 684.95081,664 683.12891,664 664,684.02142 664,685.92833 c 0,1.94174 1.26331,1.13065 5.72915,-3.67833 z M 761.5,677 c 0.33992,-0.55 0.14148,-1 -0.44098,-1 -0.58246,0 -1.05902,0.45 -1.05902,1 0,0.55 0.19844,1 0.44098,1 0.24254,0 0.7191,-0.45 1.05902,-1 z m 517.9609,-9.46418 c -3.4214,-2.74512 -9.4448,-6.33831 -7.9609,-4.74895 0.55,0.58908 3.025,2.62802 5.5,4.53097 4.9647,3.81718 7.1928,4.01453 2.4609,0.21798 z M 688.5,662 c 0.33992,-0.55 0.14148,-1 -0.44098,-1 -0.58246,0 -1.05902,0.45 -1.05902,1 0,0.55 0.19844,1 0.44098,1 0.24254,0 0.7191,-0.45 1.05902,-1 z m 581.5,-0.89301 c 0,-0.49116 -0.7386,-1.17646 -1.6414,-1.52289 -1.3725,-0.52667 -1.4344,-0.38034 -0.3776,0.89301 1.4401,1.73524 2.019,1.91584 2.019,0.62988 z m -4.5044,-3.1141 c -0.3423,-0.55391 -2.0564,-1.73614 -3.809,-2.62718 -3.6232,-1.84204 -3.0538,-0.91431 1.0558,1.72028 3.3155,2.12545 3.5551,2.20438 2.7532,0.9069 z M 695,657 c 0,-0.55 -0.19844,-1 -0.44098,-1 -0.24254,0 -0.7191,0.45 -1.05902,1 -0.33992,0.55 -0.14148,1 0.44098,1 0.58246,0 1.05902,-0.45 1.05902,-1 z m 11.88515,-10.60025 c 3.08817,-2.80514 7.18985,-6.49591 9.11485,-8.20171 2.96647,-2.62869 3.14913,-3.01276 1.19822,-2.51958 C 714.82869,636.27747 697,652.81637 697,654.41547 c 0,0.92249 0.42026,0.58171 9.88515,-8.01572 z m 526.09475,-7.92392 c -0.6957,-0.83829 -1.5252,-1.26382 -1.8434,-0.94562 -0.3182,0.31819 0.083,0.99718 0.8925,1.50885 2.1169,1.33881 2.3935,1.17499 0.9509,-0.56323 z M 1230,636.60699 c 0,-0.21616 -0.6984,-0.661 -1.5519,-0.98855 -0.89,-0.34149 -1.2914,-0.17385 -0.941,0.39301 0.5872,0.95021 2.4929,1.40545 2.4929,0.59554 z M 728.95469,627.5546 c 0.70961,-0.85503 1.83166,-1.5546 2.49344,-1.5546 0.66178,0 2.26012,-1.125 3.55187,-2.5 1.29175,-1.375 1.86833,-2.5 1.2813,-2.5 -0.58703,0 -1.33729,0.70352 -1.66725,1.56338 -0.32996,0.85986 -0.95646,1.34303 -1.39223,1.07371 -0.43577,-0.26932 -2.80145,1.31286 -5.25706,3.51596 -2.45562,2.20309 -3.52775,3.54449 -2.38252,2.98088 1.14524,-0.5636 2.66284,-1.72431 3.37245,-2.57933 z M 855,622 c 0.825,-0.53316 1.05,-0.96937 0.5,-0.96937 -0.55,0 -1.675,0.43621 -2.5,0.96937 -0.825,0.53316 -1.05,0.96937 -0.5,0.96937 0.55,0 1.675,-0.43621 2.5,-0.96937 z m 7,-3 c 0.825,-0.53316 1.05,-0.96937 0.5,-0.96937 -0.55,0 -1.675,0.43621 -2.5,0.96937 -0.825,0.53316 -1.05,0.96937 -0.5,0.96937 0.55,0 1.675,-0.43621 2.5,-0.96937 z m 331.7292,-0.60417 c -0.3323,-0.33229 -1.1948,-0.36781 -1.9167,-0.0789 -0.7977,0.31922 -0.5608,0.55618 0.6042,0.60416 1.0541,0.0434 1.6448,-0.19293 1.3125,-0.52522 z M 1185,615 c -0.825,-0.53316 -1.95,-0.96937 -2.5,-0.96937 -0.55,0 -0.325,0.43621 0.5,0.96937 0.825,0.53316 1.95,0.96937 2.5,0.96937 0.55,0 0.325,-0.43621 -0.5,-0.96937 z m -438.50708,-0.98855 c 0.35034,-0.56686 -0.0511,-0.7345 -0.94098,-0.39301 -1.73242,0.66479 -2.04939,1.38156 -0.61096,1.38156 0.51754,0 1.21592,-0.44485 1.55194,-0.98855 z M 770,599.5 c 3.025,-1.90016 4.74703,-3.46499 3.82673,-3.47741 -0.92031,-0.0124 -2.94531,1.03042 -4.5,2.31743 -1.5547,1.287 -3.72673,2.84832 -4.82673,3.46959 -1.1,0.62126 -1.55,1.13309 -1,1.1374 0.55,0.004 3.475,-1.54685 6.5,-3.44701 z m 368,0.0978 c 0,-0.2212 -1.35,-0.87279 -3,-1.44799 -3.4727,-1.21057 -4.0986,-0.52699 -0.75,0.819 2.5329,1.01808 3.75,1.22223 3.75,0.62899 z m -359.50708,-5.58638 c 0.35034,-0.56686 -0.0511,-0.7345 -0.94098,-0.39301 -1.73242,0.66479 -2.04939,1.38156 -0.61096,1.38156 0.51754,0 1.21592,-0.44485 1.55194,-0.98855 z m 334.75708,-1.6737 c -0.6875,-0.27741 -1.8125,-0.27741 -2.5,0 -0.6875,0.27741 -0.125,0.50439 1.25,0.50439 1.375,0 1.9375,-0.22698 1.25,-0.50439 z M 786.38499,590.1861 c 0.27666,-0.44765 6.36908,-3.68179 13.53871,-7.18697 7.16963,-3.50519 12.86484,-6.54392 12.65602,-6.75274 -0.34824,-0.34824 -28.46719,13.30774 -29.47304,14.31359 -0.24201,0.24201 0.28343,0.44002 1.16764,0.44002 0.8842,0 1.834,-0.36626 2.11067,-0.8139 z m 193.88404,-3.84204 c -0.67703,-0.27392 -2.02703,-0.29059 -3,-0.0371 -0.97297,0.25354 -0.41903,0.47766 1.23097,0.49804 1.65,0.0204 2.44606,-0.18706 1.76903,-0.46099 z m 8.49263,-1.03114 c -0.95609,-0.25029 -2.75609,-0.25937 -4,-0.0202 -1.24391,0.23919 -0.46166,0.44398 1.73834,0.45508 2.2,0.0111 3.21775,-0.18461 2.26166,-0.4349 z m 12.98834,-1.04139 c -2.0625,-0.21574 -5.4375,-0.21574 -7.5,0 -2.0625,0.21575 -0.375,0.39226 3.75,0.39226 4.125,0 5.8125,-0.17651 3.75,-0.39226 z m -185.22354,-10.0784 c -0.30789,-0.30789 -1.11479,-6.4e-4 -1.79313,0.68278 -0.98026,0.98762 -0.8654,1.10248 0.5598,0.5598 0.98622,-0.37553 1.54122,-0.93469 1.23333,-1.24258 z m 497.74384,849.86907 c 0.08,-1.0658 0.9976,-2.1605 2.0384,-2.4327 1.0409,-0.2722 1.5989,-0.97 1.24,-1.5507 -0.3791,-0.6135 -0.075,-0.8343 0.7252,-0.5272 1.2893,0.4948 13.0149,-6.5919 14.2717,-8.6254 0.3148,-0.5094 1.0801,-0.9262 1.7005,-0.9262 1.7921,0 -4.3915,5.9991 -8.2461,8 -1.925,0.9993 -4.8217,3.208 -6.4371,4.9084 -3.3459,3.5219 -5.5065,3.9929 -5.2926,1.1538 z M 693.87244,1399.25 c -1.24387,-1.5861 -1.2085,-1.6214 0.37756,-0.3776 1.66575,1.3064 2.19548,2.1276 1.37244,2.1276 -0.20765,0 -0.99515,-0.7875 -1.75,-1.75 z M 1358,1398.6224 c 0,-0.2076 0.7875,-0.9951 1.75,-1.75 1.5861,-1.2438 1.6214,-1.2085 0.3776,0.3776 -1.3064,1.6657 -2.1276,2.1955 -2.1276,1.3724 z M 680.92431,1387.25 678.5,1384.5 l 2.75,2.4243 c 1.5125,1.3334 2.75,2.5709 2.75,2.75 0,0.7843 -0.8098,0.146 -3.07569,-2.4243 z M 1375.5,1382 c 2.7086,-2.75 5.1498,-5 5.4248,-5 0.275,0 -1.7162,2.25 -4.4248,5 -2.7086,2.75 -5.1498,5 -5.4248,5 -0.275,0 1.7162,-2.25 4.4248,-5 z m 14.4582,-14.25 c 4.144,-4.4152 5.0418,-5.2091 5.0418,-4.4582 0,0.1605 -2.1375,2.298 -4.75,4.75 l -4.75,4.4582 z m -730.08576,-1.5 c -1.24387,-1.5861 -1.2085,-1.6214 0.37756,-0.3776 1.66575,1.3064 2.19548,2.1276 1.37244,2.1276 -0.20765,0 -0.99515,-0.7875 -1.75,-1.75 z M 1400.5,1356 c 0.9955,-1.1 2.035,-2 2.31,-2 0.275,0 -0.3145,0.9 -1.31,2 -0.9955,1.1 -2.035,2 -2.31,2 -0.275,0 0.3145,-0.9 1.31,-2 z m -753.62756,-4.75 c -1.24387,-1.5861 -1.2085,-1.6214 0.37756,-0.3776 1.66575,1.3064 2.19548,2.1276 1.37244,2.1276 -0.20765,0 -0.99515,-0.7875 -1.75,-1.75 z M 1406.5,1349 c 0.9955,-1.1 2.035,-2 2.31,-2 0.275,0 -0.3145,0.9 -1.31,2 -0.9955,1.1 -2.035,2 -2.31,2 -0.275,0 0.3145,-0.9 1.31,-2 z m 5.5,-6.3776 c 0,-0.2076 0.7875,-0.9951 1.75,-1.75 1.5861,-1.2438 1.6214,-1.2085 0.3776,0.3776 -1.3064,1.6657 -2.1276,2.1955 -2.1276,1.3724 z M 535.07895,1085.4167 c 0.048,-1.165 0.28494,-1.4019 0.60416,-0.6042 0.28887,0.7219 0.25335,1.5844 -0.0789,1.9167 -0.33229,0.3323 -0.56864,-0.2584 -0.52522,-1.3125 z m 986.99995,-9 c 0.048,-1.165 0.285,-1.4019 0.6042,-0.6042 0.2889,0.7219 0.2534,1.5844 -0.079,1.9167 -0.3323,0.3323 -0.5687,-0.2584 -0.5253,-1.3125 z m -988.99995,-9 c 0.048,-1.165 0.28494,-1.4019 0.60416,-0.6042 0.28887,0.7219 0.25335,1.5844 -0.0789,1.9167 -0.33229,0.3323 -0.56864,-0.2584 -0.52522,-1.3125 z m 989.99995,-1 c 0.048,-1.165 0.285,-1.4019 0.6042,-0.6042 0.2889,0.7219 0.2534,1.5844 -0.079,1.9167 -0.3323,0.3323 -0.5687,-0.2584 -0.5253,-1.3125 z m 1.079,-11.4167 c 0,-1.375 0.227,-1.9375 0.5044,-1.25 0.2774,0.6875 0.2774,1.8125 0,2.5 -0.2774,0.6875 -0.5044,0.125 -0.5044,-1.25 z m -991.96295,-1.5 c 0.0204,-1.65 0.2445,-2.2039 0.49804,-1.231 0.25354,0.973 0.23687,2.323 -0.0371,3 -0.27393,0.6771 -0.48137,-0.119 -0.46099,-1.769 z M 1525.2724,1038 c 0,-2.475 0.195,-3.4875 0.4333,-2.25 0.2384,1.2375 0.2384,3.2625 0,4.5 -0.2383,1.2375 -0.4333,0.225 -0.4333,-2.25 z m -994.0404,-1 c 0,-1.925 0.2058,-2.7125 0.45733,-1.75 0.25152,0.9625 0.25152,2.5375 0,3.5 -0.25153,0.9625 -0.45733,0.175 -0.45733,-1.75 z m 994,-48 c 0,-1.925 0.2058,-2.7125 0.4573,-1.75 0.2516,0.9625 0.2516,2.5375 0,3.5 -0.2515,0.9625 -0.4573,0.175 -0.4573,-1.75 z m -994.03705,-0.5 c 0.0204,-1.65 0.2445,-2.20394 0.49804,-1.23097 0.25354,0.97297 0.23687,2.32297 -0.0371,3 -0.27393,0.67703 -0.48137,-0.11903 -0.46099,-1.76903 z m 0.96294,-14.5 c 0,-1.375 0.22698,-1.9375 0.50439,-1.25 0.27741,0.6875 0.27741,1.8125 0,2.5 -0.27741,0.6875 -0.50439,0.125 -0.50439,-1.25 z m 990.92101,-11.58333 c 0.048,-1.16495 0.285,-1.4019 0.6042,-0.60417 0.2889,0.72187 0.2534,1.58438 -0.079,1.91667 -0.3323,0.33229 -0.5687,-0.25834 -0.5253,-1.3125 z M 661.5,677 c 0.99549,-1.1 2.03498,-2 2.30998,-2 0.275,0 -0.31449,0.9 -1.30998,2 -0.99549,1.1 -2.03498,2 -2.30998,2 -0.275,0 0.31449,-0.9 1.30998,-2 z m 716.9624,-11.25 -4.9624,-5.25 5.25,4.96241 c 4.8784,4.61116 5.7086,5.53759 4.9624,5.53759 -0.1582,0 -2.5207,-2.3625 -5.25,-5.25 z M 687.5,651 c 0.99549,-1.1 2.03498,-2 2.30998,-2 0.275,0 -0.31449,0.9 -1.30998,2 -0.99549,1.1 -2.03498,2 -2.30998,2 -0.275,0 0.31449,-0.9 1.30998,-2 z m 668.3724,-6.75 c -1.2438,-1.58606 -1.2085,-1.62143 0.3776,-0.37756 0.9625,0.75485 1.75,1.54235 1.75,1.75 0,0.82304 -0.8212,0.29331 -2.1276,-1.37244 z M 1101.8125,523.31689 c 0.7219,-0.28887 1.5844,-0.25335 1.9167,0.0789 0.3323,0.33229 -0.2584,0.56864 -1.3125,0.52522 -1.165,-0.048 -1.4019,-0.28494 -0.6042,-0.60416 z m -6,-1 c 0.7219,-0.28887 1.5844,-0.25335 1.9167,0.0789 0.3323,0.33229 -0.2584,0.56864 -1.3125,0.52522 -1.165,-0.048 -1.4019,-0.28494 -0.6042,-0.60416 z m -131,-1 c 0.72187,-0.28887 1.58438,-0.25335 1.91667,0.0789 0.33229,0.33229 -0.25834,0.56864 -1.3125,0.52522 -1.16495,-0.048 -1.4019,-0.28494 -0.60417,-0.60416 z m 7,-1 c 0.72187,-0.28887 1.58438,-0.25335 1.91667,0.0789 0.33229,0.33229 -0.25834,0.56864 -1.3125,0.52522 -1.16495,-0.048 -1.4019,-0.28494 -0.60417,-0.60416 z m 9,-1 c 0.72187,-0.28887 1.58438,-0.25335 1.91667,0.0789 0.33229,0.33229 -0.25834,0.56864 -1.3125,0.52522 -1.16495,-0.048 -1.4019,-0.28494 -0.60417,-0.60416 z m 94,0 c 0.7219,-0.28887 1.5844,-0.25335 1.9167,0.0789 0.3323,0.33229 -0.2584,0.56864 -1.3125,0.52522 -1.165,-0.048 -1.4019,-0.28494 -0.6042,-0.60416 z m -85.54347,-1.00988 c 0.97297,-0.25354 2.32297,-0.23687 3,0.0371 0.67703,0.27393 -0.11903,0.48137 -1.76903,0.46099 -1.65,-0.0204 -2.20394,-0.2445 -1.23097,-0.49804 z m 77.54347,0.01 c 0.7219,-0.28887 1.5844,-0.25335 1.9167,0.0789 0.3323,0.33229 -0.2584,0.56864 -1.3125,0.52522 -1.165,-0.048 -1.4019,-0.28494 -0.6042,-0.60416 z m -64.5625,-1.03314 c 1.5125,-0.22913 3.9875,-0.22913 5.5,0 1.5125,0.22912 0.275,0.41659 -2.75,0.41659 -3.025,0 -4.2625,-0.18747 -2.75,-0.41659 z m 52,0.0269 c 0.9625,-0.25152 2.5375,-0.25152 3.5,0 0.9625,0.25153 0.175,0.45733 -1.75,0.45733 -1.925,0 -2.7125,-0.2058 -1.75,-0.45733 z"
         id="path332" />
      <path
         style="fill:#252633"
         d="m 987.5,1521.9824 c -19.49974,-1.5245 -36.54661,-3.939 -56.93801,-8.0647 -57.23837,-11.5808 -100.70652,-27.1839 -146.76676,-52.6827 -72.97423,-40.3981 -127.96998,-90.7938 -171.07913,-156.7692 -14.79668,-22.6453 -24.47483,-40.7241 -36.86557,-68.8652 -25.41228,-57.7148 -38.59801,-114.1281 -43.38126,-185.6006 -3.3876,-50.61831 -0.16316,-95.82735 10.05652,-141 16.99102,-75.10308 45.16808,-136.68401 89.45724,-195.50873 16.03786,-21.30144 24.59935,-31.17438 42.96593,-49.54747 30.16223,-30.17293 64.97535,-56.62468 104.74537,-79.58778 28.19643,-16.28053 53.57485,-27.74577 85.0125,-38.40622 31.90531,-10.81902 50.7439,-15.84883 76.41661,-20.40284 58.96856,-10.46027 103.97766,-11.16618 157.87656,-2.4761 28.4424,4.58575 40.9363,7.58197 73.4473,17.61377 77.757,23.99317 141.8313,62.21268 199.9102,119.2439 61.3283,60.22197 105.3964,130.17324 131.7115,209.07147 17.3419,51.99471 24.6313,112.94707 20.9285,175 -4.47,74.9118 -18.7983,133.1364 -48.5614,197.3352 -9.5351,20.5671 -16.6671,33.43 -30.93,55.7836 -14.0362,21.9984 -21.867,32.5999 -36.4751,49.3812 -46.0913,52.948 -85.773,84.3741 -151.031,119.6098 -24.1384,13.0334 -64.9804,29.4101 -93.333,37.4244 -23.6494,6.6848 -62.4475,14.2767 -87.167,17.0564 -16.3425,1.8377 -73.0738,2.715 -90,1.3918 z m 71.9573,-6.5194 c 2.4899,-0.8454 7.4654,-1.5596 11.0567,-1.5871 9.5692,-0.073 28.7416,-3.7546 63.986,-12.2855 27.3467,-6.6192 27.6763,-6.7097 43,-11.8052 32.5055,-10.8089 55.7687,-20.7173 80.5,-34.2871 5.225,-2.8669 11.975,-6.5614 15,-8.2101 3.025,-1.6486 7.075,-3.9513 9,-5.117 1.925,-1.1658 5.2896,-3.0924 7.4769,-4.2814 2.1873,-1.189 6.3306,-3.9005 9.2073,-6.0257 2.8767,-2.1251 5.6339,-3.8639 6.1271,-3.8639 0.4931,0 1.9983,-1.0125 3.3449,-2.25 4.4549,-4.0942 9.5882,-7.6723 10.171,-7.0894 0.3158,0.3157 2.8202,-1.6163 5.5655,-4.2933 6.2221,-6.0674 12.796,-11.3647 11.6248,-9.3673 -0.4838,0.825 1.1483,-0.3 3.6269,-2.5 2.4786,-2.2 4.3335,-4.3375 4.122,-4.75 -0.2114,-0.4125 0.089,-0.75 0.6682,-0.75 0.5789,0 6.8611,-5.7375 13.9605,-12.75 7.0993,-7.0125 18.1127,-17.8789 24.4741,-24.1476 6.3615,-6.2687 11.3761,-11.7055 11.1435,-12.0818 -0.4077,-0.6597 6.3745,-7.5058 11.4481,-11.5561 l 2.4607,-1.9645 -1.7523,2.7782 c -0.9638,1.5281 -1.5136,3.1646 -1.2218,3.6367 0.2918,0.4722 -0.2102,1.472 -1.1156,2.2218 -0.9054,0.7498 -5.5129,5.675 -10.239,10.945 -13.495,15.0479 -13.6398,15.2805 -10.0928,16.208 1.2999,0.34 2,0.031 2,-0.8833 0,-0.7735 0.4011,-1.4064 0.8913,-1.4064 1.3888,0 13.2588,-12.336 13.0473,-13.5595 -0.091,-0.5234 5.8666,-7.2496 15.0031,-16.9405 1.5557,-1.65 5.8557,-7.05 9.5556,-12 3.6999,-4.95 7.1267,-9.15 7.6149,-9.3333 0.4883,-0.1834 0.8878,-1.0544 0.8878,-1.9357 0,-0.8812 1.8,-3.737 4,-6.346 2.2,-2.6091 4,-5.2731 4,-5.9201 0,-0.6469 1.0125,-2.4377 2.25,-3.9795 3.2997,-4.1112 9.9093,-14.8648 10.1517,-16.5167 0.1151,-0.7841 1.1209,-2.4479 2.2352,-3.6972 1.908,-2.1392 7.3631,-12.6428 7.3631,-14.1773 0,-0.3885 1.35,-3.4273 3,-6.7529 1.65,-3.3256 3,-7.0556 3,-8.2889 0,-1.2333 0.8001,-2.9665 1.7781,-3.8516 0.978,-0.885 1.8788,-2.8255 2.0018,-4.3121 0.123,-1.4866 1.1229,-3.3327 2.2219,-4.1025 1.099,-0.7698 1.9982,-2.4293 1.9982,-3.6879 0,-1.2586 0.9,-3.1028 2,-4.0983 1.1,-0.9955 2,-2.6544 2,-3.6864 0,-1.032 0.675,-2.1354 1.5,-2.452 0.825,-0.3166 1.5028,-1.0899 1.5062,-1.7186 0,-0.6286 0.6593,-2.3953 1.4577,-3.9259 0.9744,-1.8681 1.0546,-2.5512 0.2439,-2.0781 -0.6643,0.3876 -0.3506,-0.2726 0.6972,-1.4671 1.0477,-1.1945 1.5405,-2.1719 1.095,-2.1719 -0.4455,0 -0.064,-0.824 0.8472,-1.8312 0.9114,-1.0071 1.3664,-2.1219 1.011,-2.4773 -0.3554,-0.3554 0.045,-3.0189 0.8907,-5.9188 2.9766,-10.2117 4.8315,-19.9439 4.1877,-21.9723 -0.3921,-1.2357 -0.2604,-1.8096 0.3314,-1.4438 0.5484,0.3389 1.3201,-1.262 1.7472,-3.6248 0.9413,-5.2073 0.9175,-5.1106 2.7689,-11.2318 2.8,-9.2579 7.4948,-25.9647 8.5706,-30.5 4.2883,-18.0771 5.1453,-22.1764 5.1453,-24.6116 0,-1.5164 0.6393,-5.2617 1.4207,-8.3228 1.3315,-5.216 3.4871,-20.8462 3.8016,-27.5656 0.077,-1.65 0.5246,-3.5152 0.9942,-4.1448 0.4696,-0.6297 0.6119,-2.8797 0.3162,-5 -0.2957,-2.1204 -0.5173,-19.8302 -0.4926,-39.3552 0.038,-30.15512 -0.2528,-37.60784 -1.9333,-49.5 -1.0881,-7.7 -2.2786,-17.825 -2.6457,-22.5 -0.367,-4.675 -1.5209,-12.43274 -2.5642,-17.23941 -1.0433,-4.80668 -1.8969,-10.52845 -1.8969,-12.71506 0,-2.1866 -0.6283,-5.90386 -1.3962,-8.26058 -0.7679,-2.35672 -1.6861,-6.08495 -2.0405,-8.28495 -0.9023,-5.60203 -3.0686,-12.93966 -8.2665,-28 -5.8932,-17.07485 -7.165,-20.60379 -8.2894,-23 -0.5161,-1.1 -1.893,-4.91445 -3.0598,-8.47656 -2.3805,-7.26711 -8.2095,-22.6991 -10.5852,-28.02344 -0.859,-1.925 -2.1451,-4.85 -2.8581,-6.5 -0.713,-1.65 -2.6932,-6.00915 -4.4004,-9.68699 -1.7071,-3.67784 -3.1039,-7.00739 -3.1039,-7.39898 0,-0.65455 -6.7625,-14.94044 -11.1479,-23.55018 -1.0187,-1.99989 -1.8521,-4.29265 -1.8521,-5.09502 0,-0.80237 -0.9,-2.27334 -2,-3.26883 -1.1,-0.99549 -2,-2.32658 -2,-2.95799 0,-0.96803 -5.287,-8.96481 -6.9697,-10.54201 -0.2934,-0.275 -1.1713,-1.7375 -1.9509,-3.25 -0.7795,-1.5125 -1.7913,-2.75 -2.2484,-2.75 -0.457,0 -0.8329,-0.5625 -0.8353,-1.25 0,-0.6875 -1.8031,-3.62257 -4.0016,-6.52237 -2.1985,-2.8998 -5.069,-6.9498 -6.379,-9 -1.3099,-2.0502 -3.5676,-5.07763 -5.017,-6.72763 -1.4494,-1.65 -3.8437,-4.8 -5.3206,-7 -7.8932,-11.75731 -40.145,-45.72413 -62.2987,-65.61135 -4.6633,-4.18624 -9.87,-8.91124 -11.5703,-10.5 -1.7004,-1.58876 -4.3371,-3.55353 -5.8594,-4.36617 -1.5223,-0.81264 -5.7561,-4.12609 -9.4085,-7.36322 -6.5263,-5.78437 -13.1217,-10.72851 -23.5572,-17.65926 -10.7199,-7.11961 -13.1561,-8.69174 -16.3334,-10.54033 -1.7875,-1.03999 -3.25,-2.24386 -3.25,-2.67528 0,-0.43141 -0.4274,-0.78439 -0.9499,-0.78439 -0.5224,0 -2.9502,-1.35 -5.395,-3 -2.4448,-1.65 -4.739,-3 -5.0982,-3 -0.3591,0 -3.1331,-1.58653 -6.1644,-3.52562 -6.1851,-3.95656 -16.9573,-9.55515 -28.8925,-15.01626 -12.0963,-5.5348 -35.737,-15.25855 -38,-15.62991 -1.1,-0.18052 -2.2658,-0.68877 -2.5907,-1.12944 -0.3249,-0.44068 -1.6749,-0.92137 -3,-1.0682 -1.3251,-0.14682 -3.3626,-0.78294 -4.5278,-1.41358 -1.1652,-0.63064 -2.4272,-0.83799 -2.8044,-0.46077 -0.3772,0.37722 -1.0602,0.0801 -1.5177,-0.66018 -0.4576,-0.74032 -2.0163,-1.34604 -3.4639,-1.34604 -1.4476,0 -2.8753,-0.39375 -3.1728,-0.875 -0.2974,-0.48125 -1.5267,-0.88178 -2.7317,-0.89006 -2.3802,-0.0164 -7.9511,-1.85038 -11.2793,-3.71332 -1.1486,-0.64292 -3.0611,-0.91456 -4.25,-0.60365 -1.2625,0.33015 -2.1617,0.1008 -2.1617,-0.55134 0,-0.61415 -1.2375,-1.13094 -2.75,-1.14843 -1.5125,-0.0175 -3.6103,-0.68281 -4.6617,-1.47847 -1.1226,-0.84953 -2.98,-1.21579 -4.5,-0.88732 -2.0748,0.44838 -2.2907,0.33603 -1.0883,-0.56628 1.2675,-0.95117 1.19,-1.0889 -0.5,-0.88868 -2.8464,0.33723 -11.5,-1.13669 -11.5,-1.95872 0,-0.3788 -1.2375,-0.72764 -2.75,-0.7752 -6.9453,-0.21838 -13.0123,-0.97274 -12.6465,-1.57243 0.2211,-0.36239 -4.2118,-0.88432 -9.8508,-1.15983 -5.639,-0.27552 -12.5027,-0.96646 -15.2527,-1.53542 -2.75,-0.56897 -9.05,-1.34421 -14,-1.72276 -4.95,-0.37855 -9.9,-1.01258 -11,-1.40894 -5.0199,-1.80885 -61.5988,-1.85866 -76.76498,-0.0676 -22.01554,2.59995 -47.019,6.77538 -66.73502,11.14435 -16.65869,3.69148 -21.10866,4.93903 -37,10.37296 -19.60859,6.70502 -22.31132,7.54656 -24.21921,7.54108 -0.94556,-0.003 -3.49388,0.92007 -5.66294,2.05064 -2.16906,1.13058 -4.99541,2.10912 -6.28079,2.17454 -1.28538,0.0654 -3.01206,0.66532 -3.83706,1.33311 -1.34009,1.08474 -6.85961,2.78982 -9.5,2.93474 -0.55,0.0302 -1.58405,0.42036 -2.29789,0.86706 -0.71383,0.4467 -1.92931,0.56989 -2.70105,0.27374 -3.00671,-1.15378 -22.5017,8.15808 -49.50106,23.64439 -42.31437,24.2707 -78.2784,51.79154 -109,83.41033 -16.85646,17.34873 -23.0458,24.42621 -35.6858,40.8065 -20.17099,26.13978 -32.99266,46.46096 -48.22457,76.43156 -13.18391,25.94091 -18.43022,38.67468 -20.83418,50.56844 -1.0028,4.96141 -2.70372,11.15007 -7.55825,27.5 -18.07275,60.86868 -23.82926,107.75001 -21.78045,177.38121 0.5483,18.6347 1.45101,37.0847 2.00602,41 0.55501,3.9154 1.49742,10.9438 2.09424,15.6188 2.50415,19.6154 5.75797,37.4536 8.93796,49 3.06624,11.1333 8.18887,28.4062 9.04541,30.5 0.45,1.1 2.23744,6.5 3.97209,12 1.73464,5.5 3.56184,10.9 4.06044,12 0.49859,1.1 2.22135,5.825 3.82834,10.5 1.60699,4.675 3.64284,9.85 4.52411,11.5 0.88128,1.65 1.60786,3.675 1.61464,4.5 0.007,0.825 0.69967,2.8181 1.53976,4.4291 0.8401,1.611 1.65812,3.636 1.81783,4.5 0.15972,0.864 1.04459,3.3134 1.9664,5.443 0.92181,2.1297 1.67601,4.2733 1.67601,4.7636 0,0.4903 0.42363,1.6728 0.9414,2.6279 0.51777,0.955 3.29226,6.6864 6.16553,12.7364 2.87327,6.05 5.59964,11.15 6.0586,11.3333 0.45896,0.1834 0.83447,0.9709 0.83447,1.75 0,0.7792 0.45,1.4167 1,1.4167 0.55,0 1,0.675 1,1.5 0,0.825 0.34384,1.5 0.7641,1.5 0.42025,0 1.53163,1.6875 2.46971,3.75 2.57649,5.6647 5.07038,9.593 7.01619,11.0516 0.9625,0.7215 1.75,1.7677 1.75,2.3249 0,1.2237 5.57809,9.4516 8.15399,12.0275 1.0153,1.0153 1.84601,2.2615 1.84601,2.7693 0,0.5078 1.2375,2.3834 2.75,4.1681 1.5125,1.7847 3.65,4.7194 4.75,6.5216 1.1,1.8022 4.17259,6.114 6.82799,9.5819 2.65539,3.4678 5.80539,7.6325 7,9.2548 9.01002,12.2361 57.24043,60.9397 66.67201,67.3261 3.025,2.0483 7.975,5.8984 11,8.5557 3.025,2.6573 7.075,5.647 9,6.6436 1.925,0.9966 4.39086,2.7971 5.4797,4.001 1.08883,1.204 3.45103,2.8038 5.24934,3.5552 1.7983,0.7513 4.72536,2.7266 6.50457,4.3894 1.7792,1.6628 4.47682,3.2961 5.9947,3.6294 1.51788,0.3334 3.09996,1.1561 3.51573,1.8282 1.18892,1.922 7.0693,5.7435 8.4802,5.5111 1.50601,-0.2481 6.07104,1.4066 10.27576,3.7245 1.65,0.9096 12.225,6.3478 23.5,12.0849 11.275,5.737 20.65,10.8518 20.83333,11.3661 0.18334,0.5143 1.21918,0.9351 2.30189,0.9351 1.0827,0 3.6327,0.841 5.66666,1.8689 8.64284,4.3677 12.9493,6.2184 15.57971,6.6954 1.53903,0.2791 3.77028,1.1221 4.95833,1.8734 1.18804,0.7513 3.73508,1.6926 5.66008,2.0919 1.925,0.3993 4.38763,1.3435 5.47251,2.0982 1.08487,0.7547 3.58637,1.3722 5.55887,1.3722 1.9725,0 4.45987,0.6607 5.52749,1.4682 1.06762,0.8075 3.2592,1.4825 4.87018,1.5 2.83947,0.031 10.70339,2.1092 23.07095,6.0974 3.3,1.0641 7.00767,1.9347 8.23927,1.9346 1.2316,-10e-5 4.6066,0.9404 7.5,2.0899 2.8934,1.1496 7.26875,2.2646 9.72299,2.4777 2.45424,0.2132 7.17924,1.4785 10.5,2.8118 5.99467,2.4069 18.33514,3.7131 50.03774,5.296 4.95,0.2472 9.45,0.6107 10,0.8079 0.55,0.1973 13.9218,0.3941 29.7151,0.4376 23.3567,0.064 29.5598,-0.2079 33.2422,-1.4581 z M 1000.5,1450.377 c -46.82284,-2.2658 -97.13033,-13.0015 -140,-29.8761 -19.77954,-7.7858 -47.50693,-21.5275 -62.5,-30.9752 -31.16743,-19.6397 -56.80826,-38.4187 -70.85211,-51.8913 -14.53917,-13.9478 -36.32315,-40.6642 -52.2937,-64.1344 -16.94424,-24.9011 -38.78916,-66.9742 -48.54648,-93.5 -11.74771,-31.9368 -18.47264,-55.49 -21.69961,-76 -0.79501,-5.0529 -4.35318,-42.1238 -5.60286,-58.3734 -1.06132,-13.8004 -1.97176,-17.5571 -4.29042,-17.7031 -2.34134,-0.1475 -4.90335,-0.7787 -5.47312,-1.3485 -0.89533,-0.8953 228.68899,-0.5281 233.7583,0.374 3.44182,0.6124 1.49444,0.8301 -8.28138,0.9258 -10.10821,0.099 -12.89677,0.4259 -13.33306,1.5628 -0.30342,0.7907 0.81802,5.8532 2.49208,11.25 1.67407,5.3968 4.43668,14.9874 6.13914,21.3124 7.29305,27.0953 12.06083,40.2974 20.95452,58.0237 11.49889,22.9188 21.11432,36.8928 36.01451,52.3394 12.42481,12.8804 21.72138,20.5582 37.01419,30.5687 29.15522,19.0848 61.16753,30.5621 94.85595,34.0087 14.71765,1.5057 41.74155,1.311 55.18205,-0.3976 44.7449,-5.6882 91.3999,-27.0228 126.9543,-58.0541 36.7593,-32.083 51.8311,-56.3645 69.5124,-111.9888 3.1469,-9.9 7.0388,-21.3195 8.6485,-25.3767 1.6097,-4.0572 2.7371,-7.5664 2.5052,-7.7982 -0.2319,-0.2319 -3.6249,-0.6902 -7.54,-1.0184 -3.9151,-0.3282 -7.1184,-1.0081 -7.1184,-1.5108 0,-0.5026 0.359,-0.6921 0.7977,-0.4209 0.4388,0.2712 1.4513,0.08 2.25,-0.4257 0.959,-0.6066 -1.0782,-0.9239 -5.9977,-0.934 -6.9507,-0.014 -8.618,1.0526 -3.55,2.2716 1.1,0.2646 0.088,0.5333 -2.25,0.5971 -2.3375,0.064 -4.4058,0 -4.5963,-0.134 -0.1905,-0.1375 -1.1769,0.425 -2.192,1.25 -1.3866,1.127 -1.6389,1.1569 -1.0145,0.1203 0.5744,-0.9536 0.4021,-1.2383 -0.558,-0.9217 -0.7641,0.2519 -1.5383,1.5478 -1.7204,2.8797 -0.1822,1.3319 -1.6376,9.0459 -3.2341,17.1421 -6.8684,34.83 -17.5835,55.6355 -44.3825,86.177 -31.3764,35.7584 -81.1879,60.1884 -138.0522,67.7076 -13.2618,1.7537 -40.0865,1.4967 -51.5,-0.4933 -23.1154,-4.0302 -44.85679,-12.3785 -67.60918,-25.9606 -13.79097,-8.2326 -24.35167,-16.7402 -36.52984,-29.4282 -24.26759,-25.2833 -38.03437,-49.4915 -47.28744,-83.1525 -2.3895,-8.6926 -3.53187,-14.7641 -5.65778,-30.0704 -0.64932,-4.675 -1.48635,-8.95 -1.86008,-9.5 -2.23098,-3.2833 -3.24468,-12.3604 -2.6061,-23.3362 1.25621,-21.59143 5.56832,-40.5965 13.58715,-59.88365 9.33316,-22.44839 18.82466,-36.25762 38.40024,-55.86867 10.912,-10.93179 16.69331,-15.81645 25.80196,-21.80025 37.68179,-24.75454 71.7287,-36.12174 111.76107,-37.31353 27.7834,-0.82713 51.7392,2.5407 76.2741,10.72304 43.1155,14.37896 87.6014,50.81263 110.476,90.47926 13.0459,22.62274 19.9194,49.5352 21.6853,84.9066 0.2995,5.9987 0.7143,11.0765 0.9218,11.284 0.2075,0.2075 17.6495,-0.1052 38.76,-0.6949 21.1106,-0.5896 74.4682,-1.1674 118.5726,-1.2839 l 80.1898,-0.2118 -2.1141,2.25 c -1.1628,1.2375 -1.7556,2.25 -1.3174,2.25 0.4382,0 0.2366,0.675 -0.4481,1.5 -0.6847,0.825 -2.3044,1.5 -3.5994,1.5 -4.5669,0 -5.1526,2.7681 -5.7125,27 -0.6836,29.5816 -2.8783,45.4199 -11.0859,80 -14.8879,62.7256 -55.1357,134.3674 -103.5874,184.3875 -32.682,33.7398 -97.777,76.5918 -144.5148,95.1339 -44.4629,17.6396 -82.1238,26.3127 -132,30.3988 -13.4071,1.0983 -50.2328,1.9778 -61,1.4568 z m 40.3936,-353.8546 c 15.4926,-3.259 37.2049,-14.7768 43.9014,-23.2884 14.457,-18.3759 21.7255,-53.6752 16.3749,-79.52383 -3.0965,-14.95867 -8.9292,-23.23825 -24.6699,-35.01916 -9.7444,-7.29308 -17.4039,-11.00437 -28.5047,-13.81151 -11.8162,-2.98809 -28.739,-2.31792 -40.9953,1.62347 -27.09449,8.71307 -44.21792,23.95011 -52.22822,46.47455 -2.86648,8.06038 -3.50251,25.89088 -1.33393,37.39488 2.15907,11.4535 6.64411,23.6666 11.24378,30.6175 10.66193,16.112 30.37289,31.0968 46.69187,35.4964 6.8357,1.8429 20.8495,1.86 29.5201,0.036 z m -19.1477,-21.6081 c -9.3771,-2.21 -23.68803,-11.7026 -32.70563,-21.694 -12.17501,-13.4898 -16.02611,-26.1967 -12.60279,-41.5839 5.48742,-24.66489 24.24652,-42.07911 48.60762,-45.12283 6.5534,-0.81879 18.9156,1.93657 27.4603,6.12051 13.1394,6.43374 23.4668,19.91995 22.6791,29.61592 -0.2564,3.1567 -0.8435,4.75 -1.75,4.75 -2.0984,0 -3.0515,2.6452 -4.8639,13.5 -0.9183,5.5 -1.9651,11.575 -2.3263,13.5 -0.3612,1.925 -0.6148,4.0577 -0.5634,4.7392 0.051,0.6816 -0.2065,1.054 -0.5728,0.8276 -0.3664,-0.2265 -2.2231,1.9159 -4.126,4.7607 -5.7423,8.5848 -10.8836,12.6128 -17.1198,13.4128 -18.9473,2.4307 -35.7611,-0.9816 -44.63033,-9.0576 -4.16198,-3.7898 -8.17643,-3.0254 -8.21666,1.5644 -0.0406,4.6278 16.28159,17.4754 27.56499,21.697 3.0221,1.1308 7.6153,2.1008 10.2072,2.1556 3.852,0.082 4.256,0.2459 2.2125,0.9003 -3.1807,1.0186 -4.6253,1.0053 -9.2541,-0.086 z m 15.1183,-26.4338 c 7.2087,-3.2351 15.2272,-11.1932 18.3682,-18.2297 1.5926,-3.5677 2.1388,-6.8675 2.1934,-13.2508 0.084,-9.7968 -1.6337,-14.0573 -8.0911,-20.07159 -5.2478,-4.8877 -8.0891,-6.51044 -14.8315,-8.47051 -10.6138,-3.08551 -21.0725,0.0472 -30.0586,9.00349 -6.17172,6.15131 -7.96453,11.49531 -7.89679,23.53861 0.0403,7.1595 0.49999,9.4957 2.91496,14.8133 6.72013,14.7972 21.50043,19.8031 37.40143,12.6672 z m 3.4691,24.0618 c 0,-0.6968 1.6125,-2.1046 3.5834,-3.1283 1.9708,-1.0238 4.9758,-2.8857 6.6777,-4.1377 1.7019,-1.252 3.5878,-2.2763 4.191,-2.2763 1.6541,0 2.6291,-2.1258 1.3402,-2.9223 -0.7317,-0.4523 0.015,-1.7357 2.1183,-3.6382 2.6056,-2.3575 2.8041,-2.4318 1.0025,-0.375 -3.0786,3.5144 -2.835,4.1524 1.3326,3.4901 4.4216,-0.7027 7.0271,-2.0501 8.3478,-4.3169 0.5568,-0.9557 1.0261,-1.2303 1.0428,-0.6101 0.017,0.6201 -0.6396,1.6836 -1.4586,2.3633 -0.8189,0.6796 -1.2616,1.6036 -0.9837,2.0533 0.2779,0.4497 -0.022,1.1432 -0.6655,1.5412 -0.7312,0.4519 -0.9029,0.2901 -0.4573,-0.4309 0.3924,-0.635 0.2921,-1.1545 -0.223,-1.1545 -1.2168,0 -3.3174,2.5308 -2.6525,3.1957 0.2814,0.2814 -1.265,1.6874 -3.4365,3.1244 -2.7417,1.8144 -4.0989,2.2411 -4.4414,1.3963 -0.3862,-0.9525 -0.5103,-0.9529 -0.5722,0 -0.043,0.6682 -1.0332,1.7256 -2.1996,2.3498 -1.6737,0.8957 -1.9553,0.8673 -1.3359,-0.1348 0.5634,-0.9116 0.2923,-1.0807 -0.9611,-0.5997 -0.9603,0.3684 -1.9606,0.6699 -2.2231,0.6699 -0.2625,0 -0.2283,0.4028 0.076,0.8952 0.3043,0.4924 -0.1425,1.1622 -0.9929,1.4886 -1.0089,0.3871 -1.2974,0.1908 -0.8302,-0.5652 0.4849,-0.7846 0.1525,-0.9422 -1.0298,-0.4885 -0.9603,0.3684 -2.1856,0.6699 -2.7231,0.6699 -0.5375,0 -0.7283,0.4028 -0.424,0.8952 0.3043,0.4924 -0.044,1.1245 -0.7743,1.4047 -0.7302,0.2802 -1.3276,-0.061 -1.3276,-0.7576 z m 19.1932,-8.3492 c -0.3079,-0.3079 -1.1148,-6e-4 -1.7932,0.6828 -0.9802,0.9876 -0.8654,1.1025 0.5598,0.5598 0.9862,-0.3755 1.5412,-0.9347 1.2334,-1.2426 z M 1054,1057.107 c 0,-0.4912 0.7386,-1.1765 1.6414,-1.5229 1.3725,-0.5267 1.4344,-0.3803 0.3776,0.893 -1.4401,1.7353 -2.019,1.9158 -2.019,0.6299 z M 1078.1579,1009 c 0,-1.375 0.227,-1.9375 0.5044,-1.25 0.2774,0.6875 0.2774,1.8125 0,2.5 -0.2774,0.6875 -0.5044,0.125 -0.5044,-1.25 z M 1231,1030.559 c 0,-0.2425 -0.45,-0.7191 -1,-1.059 -0.55,-0.3399 -1,-0.1415 -1,0.441 0,0.5824 0.45,1.059 1,1.059 0.55,0 1,-0.1984 1,-0.441 z m 179,300.8513 c 0,-0.3243 0.9234,-1.3374 2.052,-2.2513 1.1286,-0.9139 2.2008,-2.561 2.3828,-3.6603 0.182,-1.0993 0.8336,-1.8862 1.448,-1.7487 0.6145,0.1375 1.1172,-0.5949 1.1172,-1.6276 0,-2.3827 2.5406,-4.6747 3.4861,-3.1449 0.3652,0.591 -1.5072,3.7611 -4.161,7.0448 -4.3492,5.3814 -6.3251,7.0646 -6.3251,5.388 z M 1420,1320 c 0,-0.55 -0.1984,-1 -0.441,-1 -0.2425,0 -0.7191,0.45 -1.059,1 -0.3399,0.55 -0.1415,1 0.441,1 0.5824,0 1.059,-0.45 1.059,-1 z m 1.4637,-4.0587 c -0.3599,-0.5823 0.5543,-2.8028 2.0315,-4.9343 1.4772,-2.1316 3.5055,-5.3677 4.5075,-7.1913 1.0019,-1.8236 2.3112,-3.2032 2.9095,-3.0657 0.5983,0.1375 0.9781,-0.088 0.844,-0.5 -0.5173,-1.5908 6.3301,-12.3147 7.4293,-11.6353 0.6704,0.4143 0.8459,0.2451 0.4351,-0.4195 -0.6943,-1.1235 0.8028,-4.4482 3.1527,-7.0013 2.0293,-2.2048 4.2052,-6.8821 3.5202,-7.5671 -0.3448,-0.3447 -0.1018,-0.6268 0.5398,-0.6268 0.6417,0 1.1667,-0.9141 1.1667,-2.0314 0,-1.1172 0.6724,-2.2894 1.4943,-2.6048 0.8218,-0.3153 1.2452,-0.9762 0.9409,-1.4686 -0.3043,-0.4924 -0.077,-0.8952 0.5058,-0.8952 0.5824,0 1.059,-0.6117 1.059,-1.3592 0,-1.6394 4.8512,-10.874 8.5377,-16.2525 1.4659,-2.1386 3.7257,-6.264 5.0217,-9.1677 1.2961,-2.9037 3.1098,-6.0327 4.0305,-6.9534 1.5653,-1.5652 1.6211,-1.5146 0.8599,0.7794 -0.4477,1.3494 -0.8285,3.2409 -0.8462,4.2034 -0.018,0.9625 -0.337,1.75 -0.7095,1.75 -0.3725,0 -0.9793,1.2375 -1.3484,2.75 -1.1623,4.7631 -7.1297,16.569 -14.082,27.8598 -3.6881,5.9896 -7.5618,12.3853 -8.6082,14.2125 -1.0464,1.8273 -2.7346,4.5273 -3.7516,6 -1.0169,1.4728 -3.7562,5.6027 -6.0874,9.1777 -2.3311,3.575 -4.6719,6.3764 -5.2018,6.2252 -0.5298,-0.1511 -0.6686,0.2022 -0.3083,0.7852 0.3603,0.583 -1.0487,3.2941 -3.1311,6.0248 -4.2169,5.5295 -4.01,5.3649 -4.9116,3.9061 z m 43.1852,-311.3475 c -1.2311,-16.01675 -9.326,-67.01245 -13.19,-83.0938 -5.0445,-20.99435 -11.7562,-40.5329 -23.0891,-67.21455 -11.5259,-27.13593 -19.8953,-42.48069 -38.4716,-70.53545 -4.2791,-6.4625 -7.3847,-11.75 -6.9013,-11.75 1.1349,0 7.5821,9.01626 7.2531,10.1434 -0.1375,0.47113 0.1402,0.8566 0.6171,0.8566 0.9741,0 5.9598,7.20772 6.3685,9.2068 0.1454,0.71126 1.0519,1.88122 2.0144,2.5999 0.9625,0.71869 1.75,1.76261 1.75,2.31983 0,1.21645 5.923,10.06674 7.434,11.10816 0.5863,0.40408 0.7229,0.74158 0.3035,0.75 -0.4194,0.008 0.3681,1.80637 1.75,3.99544 1.3819,2.18907 2.5194,4.55157 2.5278,5.25 0.011,0.88138 0.3293,0.81098 1.0417,-0.23013 0.9124,-1.33333 0.9957,-1.33333 0.7502,0 -0.3917,2.12673 2.2497,8.08284 3.2974,7.43535 0.4799,-0.29657 0.6268,0.10112 0.3264,0.88377 -0.3003,0.78265 0.042,2.05424 0.7615,2.82575 0.7191,0.77151 1.4561,2.06278 1.6377,2.86948 0.1816,0.8067 0.7825,1.74629 1.3354,2.08799 0.5529,0.3417 0.9722,1.02096 0.9318,1.50946 -0.1468,1.77511 1.0614,4.3882 2.029,4.3882 0.5454,0 0.7327,0.41891 0.4163,0.9309 -0.3164,0.512 -0.118,1.21356 0.441,1.55902 0.559,0.34546 1.0163,1.67841 1.0163,2.96211 0,1.2837 0.7035,2.60396 1.5634,2.93392 0.8598,0.32996 1.3128,1.0053 1.0066,1.50075 -0.7325,1.18521 2.1811,8.1133 3.412,8.1133 0.5254,0 0.6679,0.74882 0.3167,1.66404 -0.4637,1.20826 -0.2758,1.43984 0.6859,0.8455 0.829,-0.51236 1.0841,-0.42966 0.6819,0.22108 -0.8277,1.3392 1.2706,7.42627 2.3335,6.76938 1.2069,-0.74591 2.9341,5.03611 2.2667,7.58819 -0.3714,1.42002 -0.2014,1.98952 0.4698,1.57467 1.3019,-0.8046 4.4437,6.70406 3.6598,8.74669 -0.31,0.80794 -0.09,2.28381 0.4896,3.27971 0.8143,1.39985 1.0691,1.47036 1.1228,0.31074 0.038,-0.825 0.743,0.0523 1.5661,1.94954 0.8682,2.00141 1.2382,4.6252 0.8814,6.25 -0.4607,2.09723 -0.238,2.80046 0.8868,2.80046 1.371,0 2.6432,2.80501 3.9683,8.75 0.2758,1.2375 0.094,2.25 -0.4049,2.25 -0.4985,0 -0.9064,0.525 -0.9064,1.16667 0,0.64166 0.2961,0.87057 0.658,0.50867 1.0904,-1.09043 3.342,1.41907 3.342,3.72486 0,1.18543 0.9,2.92592 2,3.86777 1.1,0.94185 2,2.35436 2,3.13891 0,0.78455 0.4949,1.59141 1.0997,1.79302 0.6048,0.20161 1.2183,3.05161 1.3633,6.33333 0.145,3.28172 0.3251,6.97927 0.4003,8.21677 0.075,1.2375 0.6836,2.1375 1.3521,2 0.827,-0.17012 1.5833,2.83299 2.3668,9.39878 0.6334,5.30683 1.6615,11.11148 2.2847,12.89923 0.6232,1.78774 1.1331,7.21916 1.1331,12.06983 0,7.42862 -0.2365,8.72862 -1.5,8.24379 -1.7779,-0.68226 -1.891,0.49231 -0.4164,4.32327 1.6158,4.19743 1.3231,21.337 -0.3937,23.0538 -1.1804,1.1804 -1.4823,0.1236 -2.041,-7.1449 z m 0.058,-16.83214 c -0.2392,-1.24391 -0.444,-0.46166 -0.4551,1.73834 -0.011,2.2 0.1846,3.21775 0.4349,2.26166 0.2503,-0.95609 0.2594,-2.75609 0.02,-4 z m -1.045,-10.01166 c -0.2774,-0.6875 -0.5044,-0.125 -0.5044,1.25 0,1.375 0.227,1.9375 0.5044,1.25 0.2774,-0.6875 0.2774,-1.8125 0,-2.5 z m -4,-26 c -0.2774,-0.6875 -0.5044,-0.125 -0.5044,1.25 0,1.375 0.227,1.9375 0.5044,1.25 0.2774,-0.6875 0.2774,-1.8125 0,-2.5 z m -3.9792,-22.9375 c -0.3192,-0.79773 -0.5562,-0.56078 -0.6042,0.60417 -0.043,1.05416 0.193,1.64479 0.5253,1.3125 0.3323,-0.33229 0.3678,-1.1948 0.079,-1.91667 z M 1458,923 c 0,-0.55 -0.4766,-1 -1.059,-1 -0.5825,0 -0.7809,0.45 -0.441,1 0.3399,0.55 0.8165,1 1.059,1 0.2426,0 0.441,-0.45 0.441,-1 z M 621.03063,860.5 c 0,-0.55 0.43621,-1.675 0.96937,-2.5 0.53316,-0.825 0.96937,-1.05 0.96937,-0.5 0,0.55 -0.43621,1.675 -0.96937,2.5 -0.53316,0.825 -0.96937,1.05 -0.96937,0.5 z M 633,832.05902 c 0,-0.51754 0.44485,-1.21592 0.98855,-1.55194 0.56686,-0.35034 0.7345,0.0511 0.39301,0.94098 C 633.71677,833.18048 633,833.49745 633,832.05902 Z m 2,-3.28008 c 0,-1.246 6.25939,-13.82122 7.15516,-14.37483 0.5322,-0.32892 -0.68774,2.70809 -2.71098,6.74892 -3.68327,7.35624 -4.44418,8.6619 -4.44418,7.62591 z m 8.00659,-16.36227 c 0.004,-0.50417 0.92287,-2.26667 2.04277,-3.91667 1.11989,-1.65 2.64855,-4.41363 3.39701,-6.14141 1.89092,-4.36507 24.18695,-37.72222 26.73522,-39.99861 1.14516,-1.02299 -2.63673,5.11502 -8.40421,13.64002 -5.76748,8.525 -13.30154,20.225 -16.74236,26 -6.8111,11.43162 -7.03815,11.76811 -7.02843,10.41667 z m 825.45231,-5.4832 c -0.3626,-0.58659 -0.4447,-1.281 -0.1826,-1.54313 0.2622,-0.26213 0.7431,0.21781 1.0688,1.06653 0.6762,1.76211 0.1,2.07206 -0.8862,0.4766 z m -3.479,-7.45764 c -0.6957,-0.83829 -1.0712,-1.71782 -0.8345,-1.95452 0.2366,-0.23669 0.9796,0.44918 1.6509,1.52417 1.4518,2.32472 0.9677,2.57996 -0.8164,0.43035 z m -88.116,-34.55229 c -4.5533,-6.34025 -11.6224,-15.36789 -18.2552,-23.3131 -2.1402,-2.56368 -3.6783,-4.8742 -3.418,-5.1345 0.2603,-0.26031 1.7864,1.10527 3.3913,3.03462 1.6049,1.92934 4.8305,5.60032 7.168,8.15774 2.3375,2.55742 4.25,5.20512 4.25,5.88379 0,0.67866 0.675,1.49295 1.5,1.80954 0.825,0.31658 1.5,1.21658 1.5,2 0,0.78341 0.675,1.68341 1.5,2 0.825,0.31658 1.5,1.21658 1.5,2 0,0.78341 0.6789,1.68491 1.5087,2.00332 0.8297,0.3184 2.0581,1.82905 2.7296,3.35699 0.6715,1.52793 1.6802,3.10867 2.2413,3.51275 0.6679,0.48089 0.6279,0.73997 -0.1157,0.75 -0.6249,0.008 -3.0999,-2.7191 -5.5,-6.06115 z M 680.95479,754.50919 C 685.47642,747.98241 701.85544,730 703.27862,730 c 0.48497,0 -1.35727,2.3625 -4.09386,5.25 -2.73658,2.8875 -8.22741,9.075 -12.20184,13.75 -9.81419,11.54414 -10.89048,12.52777 -6.02813,5.50919 z M 1351.8724,733.25 c -1.2438,-1.58606 -1.2085,-1.62143 0.3776,-0.37756 0.9625,0.75485 1.75,1.54235 1.75,1.75 0,0.82304 -0.8212,0.29331 -2.1276,-1.37244 z m -3.8925,-3.77417 c -0.6957,-0.83829 -1.0122,-1.77683 -0.7034,-2.08564 0.3088,-0.30882 1.0638,0.37706 1.6777,1.52416 1.3098,2.44747 0.8236,2.72772 -0.9743,0.56148 z M 705.32704,727 c 2.80114,-4.33159 32.04597,-31.78084 45.67296,-42.86871 4.125,-3.35639 8.47795,-6.99076 9.67322,-8.07639 1.19527,-1.08562 5.47027,-4.3546 9.5,-7.26438 4.02973,-2.90979 8.19913,-6.07802 9.26534,-7.04052 1.06621,-0.9625 2.32403,-1.75 2.79516,-1.75 0.47113,0 4.09878,-2.16692 8.06144,-4.81537 13.38835,-8.94813 52.53166,-30.24909 55.42446,-30.16082 0.42921,0.0131 -6.41962,3.75058 -15.21962,8.30551 -43.40989,22.46922 -75.19217,45.93351 -115.89482,85.56309 -5.99216,5.83417 -10.16732,9.48259 -9.27814,8.10759 z m 638.63716,-2.16435 c -1.1451,-2.23286 -1.1183,-2.25968 0.6095,-0.60946 0.994,0.94941 1.533,2.00045 1.1978,2.33565 -0.3352,0.3352 -1.1485,-0.44159 -1.8073,-1.72619 z m -3.9247,-4.15033 c -1.2864,-2.0659 -1.2564,-2.10515 0.5498,-0.71829 1.0509,0.80687 2.0531,1.54931 2.2272,1.64987 0.1741,0.10055 -0.073,0.42378 -0.5498,0.71828 -0.4765,0.2945 -1.4788,-0.44794 -2.2272,-1.64986 z m -4.0753,-3.84967 c -1.1451,-2.23286 -1.1183,-2.25968 0.6095,-0.60946 0.994,0.94941 1.533,2.00045 1.1978,2.33565 -0.3352,0.3352 -1.1485,-0.44159 -1.8073,-1.72619 z M 1332,713.5 c -0.7068,-0.85158 -1.06,-1.77333 -0.785,-2.04833 0.275,-0.275 1.0782,0.19675 1.785,1.04833 0.7068,0.85158 1.06,1.77333 0.785,2.04833 -0.275,0.275 -1.0782,-0.19675 -1.785,-1.04833 z m -4.1276,-4.25 c -1.2438,-1.58606 -1.2085,-1.62143 0.3776,-0.37756 0.9625,0.75485 1.75,1.54235 1.75,1.75 0,0.82304 -0.8212,0.29331 -2.1276,-1.37244 z m -4,-4 c -1.2438,-1.58606 -1.2085,-1.62143 0.3776,-0.37756 0.9625,0.75485 1.75,1.54235 1.75,1.75 0,0.82304 -0.8212,0.29331 -2.1276,-1.37244 z M 648.86589,703.5 c 1.18862,-2.34274 12.01073,-14.84545 13.27222,-15.33333 1.78116,-0.68886 0.77833,1.80768 -1.13811,2.83333 -1.1,0.5887 -2,1.46316 -2,1.94325 0,0.48008 -2.50849,3.50175 -5.57443,6.71481 -3.06593,3.21307 -5.11779,4.94194 -4.55968,3.84194 z M 1315.5,698.36578 c -5.7165,-5.19588 -25.2979,-21.02664 -36.75,-29.71089 -4.2625,-3.23231 -7.75,-6.07741 -7.75,-6.32244 0,-0.81244 6.0259,3.09834 9.0991,5.90523 1.6634,1.51928 3.2449,2.76232 3.5145,2.76232 0.2696,0 5.9055,4.3875 12.5243,9.75 6.6188,5.3625 13.8265,11.18946 16.0171,12.94881 5.522,4.43478 10.4123,9.31014 9.2848,9.25638 -0.5169,-0.0247 -3.1898,-2.08988 -5.9398,-4.58941 z m 82.3724,0.88422 c -1.2438,-1.58606 -1.2085,-1.62143 0.3776,-0.37756 0.9625,0.75485 1.75,1.54235 1.75,1.75 0,0.82304 -0.8212,0.29331 -2.1276,-1.37244 z M 664,685.92833 C 664,684.02142 683.12891,664 684.95081,664 c 1.15152,0 -3.91557,6.07518 -15.22166,18.25 C 665.26331,687.05898 664,687.87007 664,685.92833 Z M 687,662 c 0,-0.55 0.47656,-1 1.05902,-1 0.58246,0 0.7809,0.45 0.44098,1 -0.33992,0.55 -0.81648,1 -1.05902,1 C 687.19844,663 687,662.55 687,662 Z m 580.981,-1.52289 c -1.0568,-1.27335 -0.9949,-1.41968 0.3776,-0.89301 0.9028,0.34643 1.6414,1.03173 1.6414,1.52289 0,1.28596 -0.5789,1.10536 -2.019,-0.62988 z m -5.2386,-3.39112 c -4.1096,-2.63459 -4.679,-3.56232 -1.0558,-1.72028 1.7526,0.89104 3.4667,2.07327 3.809,2.62718 0.8019,1.29748 0.5623,1.21855 -2.7532,-0.9069 z M 693.5,657 c 0.33992,-0.55 0.81648,-1 1.05902,-1 0.24254,0 0.44098,0.45 0.44098,1 0,0.55 -0.47656,1 -1.05902,1 -0.58246,0 -0.7809,-0.45 -0.44098,-1 z m 3.5,-2.58453 c 0,-1.5991 17.82869,-18.138 20.19822,-18.73701 1.95091,-0.49318 1.76825,-0.10911 -1.19822,2.51958 -1.925,1.7058 -6.02668,5.39657 -9.11485,8.20171 C 697.42026,654.99718 697,655.33796 697,654.41547 Z m 559.029,-1.37641 c -0.8091,-0.51167 -1.2107,-1.19066 -0.8925,-1.50885 0.3182,-0.3182 1.1477,0.10733 1.8434,0.94562 1.4426,1.73822 1.166,1.90204 -0.9509,0.56323 z m -5.5879,-3.59423 c -1.8303,-1.46637 -1.7984,-1.48719 0.5589,-0.36454 3.061,1.45781 3.6283,1.91971 2.3578,1.91971 -0.5365,0 -1.849,-0.69982 -2.9167,-1.55517 z M 1240,643.42467 c -7.1498,-4.44117 -5.7907,-4.40228 2.2328,0.0639 3.447,1.91871 5.5922,3.45795 4.7672,3.42053 -0.825,-0.0374 -3.975,-1.6054 -7,-3.48441 z m -7.971,-4.38561 c -0.8091,-0.51167 -1.2107,-1.19066 -0.8925,-1.50885 0.3182,-0.3182 1.1477,0.10733 1.8434,0.94562 1.4426,1.73822 1.166,1.90204 -0.9509,0.56323 z m -4.5219,-3.02761 c -0.3504,-0.56686 0.051,-0.7345 0.941,-0.39301 1.7324,0.66479 2.0493,1.38156 0.6109,1.38156 -0.5175,0 -1.2159,-0.44485 -1.5519,-0.98855 z m -499.54234,-8.8584 c 2.45561,-2.2031 4.82129,-3.78528 5.25706,-3.51596 0.43577,0.26932 1.06227,-0.21385 1.39223,-1.07371 0.32996,-0.85986 1.08022,-1.56338 1.66725,-1.56338 0.58703,0 0.0104,1.125 -1.2813,2.5 -1.29175,1.375 -2.89009,2.5 -3.55187,2.5 -0.66178,0 -1.78383,0.69957 -2.49344,1.5546 -0.70961,0.85502 -2.22721,2.01573 -3.37245,2.57933 -1.14523,0.56361 -0.0731,-0.77779 2.38252,-2.98088 z M 853,622 c 0.825,-0.53316 1.95,-0.96937 2.5,-0.96937 0.55,0 0.325,0.43621 -0.5,0.96937 -0.825,0.53316 -1.95,0.96937 -2.5,0.96937 -0.55,0 -0.325,-0.43621 0.5,-0.96937 z m 7,-3 c 0.825,-0.53316 1.95,-0.96937 2.5,-0.96937 0.55,0 0.325,0.43621 -0.5,0.96937 -0.825,0.53316 -1.95,0.96937 -2.5,0.96937 -0.55,0 -0.325,-0.43621 0.5,-0.96937 z m 331.8125,-0.68311 c 0.7219,-0.28887 1.5844,-0.25335 1.9167,0.0789 0.3323,0.33229 -0.2584,0.56864 -1.3125,0.52522 -1.165,-0.048 -1.4019,-0.28494 -0.6042,-0.60416 z M 1183,615 c -0.825,-0.53316 -1.05,-0.96937 -0.5,-0.96937 0.55,0 1.675,0.43621 2.5,0.96937 0.825,0.53316 1.05,0.96937 0.5,0.96937 -0.55,0 -1.675,-0.43621 -2.5,-0.96937 z m -439,-0.39301 c 0,-0.21616 0.69837,-0.661 1.55194,-0.98855 0.88992,-0.34149 1.29132,-0.17385 0.94098,0.39301 C 745.90566,614.96166 744,615.4169 744,614.60699 Z m 431.8125,-2.2901 c 0.7219,-0.28887 1.5844,-0.25335 1.9167,0.0789 0.3323,0.33229 -0.2584,0.56864 -1.3125,0.52522 -1.165,-0.048 -1.4019,-0.28494 -0.6042,-0.60416 z M 1172,611 c -0.9013,-0.58246 -1.0246,-0.97549 -0.309,-0.98469 0.655,-0.008 1.4691,0.43469 1.809,0.98469 0.7673,1.24153 0.4211,1.24153 -1.5,0 z m -11.5,-4 c -1.6304,-0.70061 -1.6875,-0.87242 -0.309,-0.92971 0.93,-0.0387 1.9691,0.37971 2.309,0.92971 0.7107,1.14988 0.6759,1.14988 -2,0 z m -12.5,-4 c -1.2927,-0.8354 -1.2663,-0.97149 0.191,-0.98469 0.93,-0.008 1.9691,0.43469 2.309,0.98469 0.7822,1.2656 -0.5416,1.2656 -2.5,0 z m -383.5,-1.19039 c 1.1,-0.62127 3.27203,-2.18259 4.82673,-3.46959 1.55469,-1.28701 3.57969,-2.32986 4.5,-2.31743 0.9203,0.0124 -0.80173,1.57725 -3.82673,3.47741 -3.025,1.90016 -5.95,3.45131 -6.5,3.44701 -0.55,-0.004 -0.1,-0.51614 1,-1.1374 z M 1140.5,601 c -1.6304,-0.70061 -1.6875,-0.87242 -0.309,-0.92971 0.93,-0.0387 1.9691,0.37971 2.309,0.92971 0.7107,1.14988 0.6759,1.14988 -2,0 z m -6.25,-2.03116 c -3.3486,-1.34599 -2.7227,-2.02957 0.75,-0.819 1.65,0.5752 3,1.22679 3,1.44799 0,0.59324 -1.2171,0.38909 -3.75,-0.62899 z M 776,594.60699 c 0,-0.21616 0.69837,-0.661 1.55194,-0.98855 0.88992,-0.34149 1.29132,-0.17385 0.94098,0.39301 C 777.90566,594.96166 776,595.4169 776,594.60699 Z M 1116,594 c -1.3333,-0.86167 -1.3333,-0.96327 0,-0.9144 0.825,0.0302 2.4,0.44171 3.5,0.9144 l 2,0.85943 -2,0.055 c -1.1,0.0302 -2.675,-0.38124 -3.5,-0.9144 z m -5.25,-1.66228 c 0.6875,-0.27741 1.8125,-0.27741 2.5,0 0.6875,0.27741 0.125,0.50439 -1.25,0.50439 -1.375,0 -1.9375,-0.22698 -1.25,-0.50439 z m -15.25,-2.39625 c -4.4,-0.97511 -6.7919,-1.81084 -5.3154,-1.8572 2.8481,-0.0894 16.8758,2.64279 17.6757,3.44271 0.8663,0.86628 -4.27,0.20742 -12.3603,-1.58551 z m -312.39332,0.61851 c 1.00585,-1.00585 29.1248,-14.66183 29.47304,-14.31359 0.20882,0.20882 -5.48639,3.24755 -12.65602,6.75274 -7.16963,3.50518 -13.26205,6.73932 -13.53871,7.18697 -0.27667,0.44764 -1.22647,0.8139 -2.11067,0.8139 -0.88421,0 -1.40965,-0.19801 -1.16764,-0.44002 z M 1074.5,586.94266 c -3.4069,-0.70467 -22.5365,-1.89739 -53.5,-3.33569 -4.125,-0.19161 3.3,-0.18511 16.5,0.0145 22.6617,0.34261 38.5901,1.49139 46.5,3.35365 l 3.5,0.82402 -4.5,-0.0145 c -2.475,-0.008 -6.3,-0.38685 -8.5,-0.84189 z m -97.23097,-0.63565 c 0.97297,-0.25354 2.32297,-0.23687 3,0.0371 0.67703,0.27393 -0.11903,0.48137 -1.76903,0.46099 -1.65,-0.0204 -2.20394,-0.2445 -1.23097,-0.49804 z m 7.49263,-1.01427 c 1.24391,-0.23919 3.04391,-0.23011 4,0.0202 0.95609,0.25029 -0.0617,0.446 -2.26166,0.4349 -2.2,-0.0111 -2.98225,-0.21589 -1.73834,-0.45508 z m 9.48834,-1.02121 c 2.0625,-0.21574 5.4375,-0.21574 7.5,0 2.0625,0.21575 0.375,0.39226 -3.75,0.39226 -4.125,0 -5.8125,-0.17651 -3.75,-0.39226 z m -179.51667,-9.39562 c 0.67834,-0.68342 1.48524,-0.99067 1.79313,-0.68278 0.30789,0.30789 -0.24711,0.86705 -1.23333,1.24258 -1.4252,0.54268 -1.54006,0.42782 -0.5598,-0.5598 z m 504.82957,848.03249 c 1.6154,-1.7004 4.5121,-3.9091 6.4371,-4.9084 3.8546,-2.0009 10.0382,-8 8.2461,-8 -0.6204,0 -1.3857,0.4168 -1.7005,0.9262 -1.2568,2.0335 -12.9824,9.1202 -14.2717,8.6254 -0.8004,-0.3071 -1.1043,-0.086 -0.7252,0.5272 0.3589,0.5807 -0.1991,1.2785 -1.24,1.5507 -2.0983,0.5487 -2.9147,4.3705 -0.9336,4.3705 0.6879,0 2.5724,-1.3912 4.1878,-3.0916 z"
         id="path330" />
    </g>
  </g>
</svg>
